# Blender 4.0.2
# www.blender.org
mtllib SM_DoorWindows_LOD1.mtl
o SM_DoorWindows_LOD1
v 8.638179 2.508943 -9.003176
v 8.745817 2.508945 -4.911650
v 8.638178 2.508945 -4.911650
v 8.745818 2.508943 -9.003176
v 8.745817 2.508945 -4.911650
v 8.745817 -0.001212 -4.911650
v 8.638178 -0.001212 -4.911650
v 8.638178 2.508945 -4.911650
v 8.745817 -0.001212 -4.911650
v 8.745818 -0.001214 -9.003176
v 8.638179 -0.001214 -9.003176
v 8.638178 -0.001212 -4.911650
v 8.745818 -0.001214 -9.003176
v 8.745818 2.508943 -9.003176
v 8.638179 2.508943 -9.003176
v 8.638179 -0.001214 -9.003176
v 8.745817 2.508945 -4.911650
v 8.745817 0.039153 -4.978919
v 8.745817 -0.001212 -4.911650
v 8.745817 2.468580 -4.978919
v 8.745817 2.508945 -4.911650
v 8.745818 2.508943 -9.003176
v 8.745818 2.468578 -8.935901
v 8.745817 2.468580 -4.978919
v 8.745818 -0.001214 -9.003176
v 8.745817 -0.001212 -4.911650
v 8.745818 0.039151 -8.935901
v 8.745817 0.039153 -4.978919
v 8.745818 2.508943 -9.003176
v 8.745818 -0.001214 -9.003176
v 8.745818 0.039151 -8.935901
v 8.745818 2.468578 -8.935901
v 8.646816 2.468578 -8.935901
v 8.727546 2.468580 -6.995138
v 8.646815 2.468580 -6.995138
v 8.727546 2.468578 -8.935901
v 8.727546 2.468580 -6.995138
v 8.727546 0.039151 -6.995139
v 8.646815 0.039151 -6.995139
v 8.646815 2.468580 -6.995138
v 8.727546 0.039151 -6.995139
v 8.727546 0.039151 -8.935901
v 8.646816 0.039151 -8.935901
v 8.646815 0.039151 -6.995139
v 8.727546 0.039151 -8.935901
v 8.727546 2.468578 -8.935901
v 8.646816 2.468578 -8.935901
v 8.646816 0.039151 -8.935901
v 8.727546 0.039151 -6.995139
v 8.727546 2.468580 -6.995138
v 8.727546 2.394577 -7.119422
v 8.727546 0.113153 -7.119423
v 8.727546 2.468578 -8.935901
v 8.727546 2.394577 -7.119422
v 8.727546 2.468580 -6.995138
v 8.727546 2.394576 -8.861898
v 8.727546 0.039151 -8.935901
v 8.727546 0.113153 -7.119423
v 8.727546 0.113153 -8.861898
v 8.727546 0.039151 -6.995139
v 8.727546 0.039151 -8.935901
v 8.727546 2.394576 -8.861898
v 8.727546 2.468578 -8.935901
v 8.727546 0.113153 -8.861898
v 8.665088 2.468580 -6.995138
v 8.745817 2.468580 -4.978919
v 8.665088 2.468580 -4.978919
v 8.745818 2.468580 -6.995138
v 8.745817 2.468580 -4.978919
v 8.745817 0.039153 -4.978919
v 8.665088 0.039153 -4.978919
v 8.665088 2.468580 -4.978919
v 8.745817 0.039153 -4.978919
v 8.745818 0.039151 -6.995139
v 8.665088 0.039151 -6.995139
v 8.665088 0.039153 -4.978919
v 8.745818 0.039151 -6.995139
v 8.745818 2.468580 -6.995138
v 8.665088 2.468580 -6.995138
v 8.665088 0.039151 -6.995139
v 8.745817 0.039153 -4.978919
v 8.745817 2.468580 -4.978919
v 8.745817 2.394578 -5.052921
v 8.745817 0.113155 -5.052920
v 8.745817 2.468580 -4.978919
v 8.745818 2.468580 -6.995138
v 8.745818 2.394577 -6.913763
v 8.745817 2.394578 -5.052921
v 8.745818 0.039151 -6.995139
v 8.745817 0.039153 -4.978919
v 8.745818 0.113153 -6.913762
v 8.745817 0.113155 -5.052920
v 8.745818 0.039151 -6.995139
v 8.745818 2.394577 -6.913763
v 8.745818 2.468580 -6.995138
v 8.745818 0.113153 -6.913762
v 8.638179 0.023007 -8.952045
v 8.638179 2.484722 -8.952045
v 8.654323 0.039151 -8.935901
v 8.654323 2.468578 -8.935901
v 8.654323 0.039153 -4.978919
v 8.638179 0.023007 -8.952045
v 8.654323 0.039151 -8.935901
v 8.638178 0.023008 -4.962774
v 8.638178 2.484724 -4.962775
v 8.654323 0.039153 -4.978919
v 8.654323 2.468580 -4.978919
v 8.638178 0.023008 -4.962774
v 8.638179 2.484722 -8.952045
v 8.654323 2.468580 -4.978919
v 8.654323 2.468578 -8.935901
v 8.638178 2.484724 -4.962775
v 8.646816 0.097009 -8.878043
v 8.646816 2.410720 -8.878043
v 8.662961 0.113153 -8.861898
v 8.662961 2.394576 -8.861898
v 8.662961 0.113153 -8.861898
v 8.646815 0.097009 -7.106651
v 8.646816 0.097009 -8.878043
v 8.662960 0.113153 -7.119423
v 8.646815 2.410721 -7.106651
v 8.646815 0.097009 -7.106651
v 8.662960 2.394577 -7.119422
v 8.662960 0.113153 -7.119423
v 8.646816 2.410720 -8.878043
v 8.646815 2.410721 -7.106651
v 8.662961 2.394576 -8.861898
v 8.662960 2.394577 -7.119422
v 8.665088 0.097009 -6.936196
v 8.665088 2.410722 -6.936196
v 8.681232 0.113153 -6.913762
v 8.681232 2.394577 -6.913763
v 8.681232 0.113153 -6.913762
v 8.665088 0.097010 -5.036776
v 8.665088 0.097009 -6.936196
v 8.681232 0.113155 -5.052920
v 8.665088 2.410722 -5.036777
v 8.665088 0.097010 -5.036776
v 8.681232 2.394578 -5.052921
v 8.681232 0.113155 -5.052920
v 8.665088 2.410722 -6.936196
v 8.665088 2.410722 -5.036777
v 8.681232 2.394577 -6.913763
v 8.681232 2.394578 -5.052921
v 8.654323 0.039151 -8.935901
v 8.745817 0.039153 -4.978919
v 8.654323 0.039153 -4.978919
v 8.745818 0.039151 -8.935901
v 8.745817 0.039153 -4.978919
v 8.745817 2.468580 -4.978919
v 8.654323 2.468580 -4.978919
v 8.654323 0.039153 -4.978919
v 8.745817 2.468580 -4.978919
v 8.745818 2.468578 -8.935901
v 8.654323 2.468578 -8.935901
v 8.654323 2.468580 -4.978919
v 8.745818 2.468578 -8.935901
v 8.745818 0.039151 -8.935901
v 8.654323 0.039151 -8.935901
v 8.654323 2.468578 -8.935901
v 8.638178 2.508945 -4.911650
v 8.638178 0.023008 -4.962774
v 8.638178 2.484724 -4.962775
v 8.638178 -0.001212 -4.911650
v 8.638178 -0.001212 -4.911650
v 8.638179 -0.001214 -9.003176
v 8.638179 0.023007 -8.952045
v 8.638178 0.023008 -4.962774
v 8.638179 -0.001214 -9.003176
v 8.638179 2.508943 -9.003176
v 8.638179 0.023007 -8.952045
v 8.638179 2.484722 -8.952045
v 8.638179 2.508943 -9.003176
v 8.638178 2.508945 -4.911650
v 8.638179 2.484722 -8.952045
v 8.638178 2.484724 -4.962775
v 8.662961 0.113153 -8.861898
v 8.727546 0.113153 -7.119423
v 8.662960 0.113153 -7.119423
v 8.727546 0.113153 -8.861898
v 8.727546 0.113153 -7.119423
v 8.727546 2.394577 -7.119422
v 8.662960 2.394577 -7.119422
v 8.662960 0.113153 -7.119423
v 8.727546 2.394577 -7.119422
v 8.727546 2.394576 -8.861898
v 8.662961 2.394576 -8.861898
v 8.662960 2.394577 -7.119422
v 8.727546 2.394576 -8.861898
v 8.727546 0.113153 -8.861898
v 8.662961 0.113153 -8.861898
v 8.662961 2.394576 -8.861898
v 8.646815 2.468580 -6.995138
v 8.646815 0.097009 -7.106651
v 8.646815 2.410721 -7.106651
v 8.646815 0.039151 -6.995139
v 8.646816 0.039151 -8.935901
v 8.646815 0.097009 -7.106651
v 8.646815 0.039151 -6.995139
v 8.646816 0.097009 -8.878043
v 8.646816 0.039151 -8.935901
v 8.646816 2.410720 -8.878043
v 8.646816 0.097009 -8.878043
v 8.646816 2.468578 -8.935901
v 8.646816 2.468578 -8.935901
v 8.646815 2.410721 -7.106651
v 8.646816 2.410720 -8.878043
v 8.646815 2.468580 -6.995138
v 8.681232 0.113153 -6.913762
v 8.745817 0.113155 -5.052920
v 8.681232 0.113155 -5.052920
v 8.745818 0.113153 -6.913762
v 8.745817 0.113155 -5.052920
v 8.745817 2.394578 -5.052921
v 8.681232 2.394578 -5.052921
v 8.681232 0.113155 -5.052920
v 8.745817 2.394578 -5.052921
v 8.745818 2.394577 -6.913763
v 8.681232 2.394577 -6.913763
v 8.681232 2.394578 -5.052921
v 8.745818 2.394577 -6.913763
v 8.745818 0.113153 -6.913762
v 8.681232 0.113153 -6.913762
v 8.681232 2.394577 -6.913763
v 8.665088 0.039153 -4.978919
v 8.665088 2.410722 -5.036777
v 8.665088 2.468580 -4.978919
v 8.665088 0.097010 -5.036776
v 8.665088 0.039153 -4.978919
v 8.665088 0.039151 -6.995139
v 8.665088 0.097009 -6.936196
v 8.665088 0.097010 -5.036776
v 8.665088 0.039151 -6.995139
v 8.665088 2.410722 -6.936196
v 8.665088 0.097009 -6.936196
v 8.665088 2.468580 -6.995138
v 8.665088 2.468580 -6.995138
v 8.665088 2.468580 -4.978919
v 8.665088 2.410722 -6.936196
v 8.665088 2.410722 -5.036777
v 8.542762 1.038872 -7.050441
v 8.556095 1.038898 -7.033488
v 8.553778 1.038607 -7.067587
v 8.574340 1.038831 -7.043252
v 8.573368 1.039067 -7.062564
v 8.640648 1.204007 -7.046164
v 8.559165 1.204007 -7.046164
v 8.640651 1.212458 -7.034760
v 8.559154 1.216730 -7.032907
v 8.640649 1.228868 -7.035989
v 8.559161 1.234542 -7.040347
v 8.640655 1.237365 -7.046091
v 8.559165 1.237846 -7.053514
v 8.640649 1.235654 -7.059548
v 8.559161 1.231297 -7.065222
v 8.640655 1.225554 -7.068046
v 8.559165 1.218130 -7.068527
v 8.640657 1.206995 -7.063797
v 8.559160 1.204619 -7.060034
v 8.640648 1.204007 -7.046164
v 8.559165 1.204007 -7.046164
v 8.647395 1.173226 -7.056534
v 8.628364 1.182086 -7.080732
v 8.628551 1.173326 -7.056088
v 8.647341 1.202631 -7.099920
v 8.628561 1.206195 -7.097044
v 8.628787 1.234603 -7.097793
v 8.647352 1.252732 -7.088714
v 8.628758 1.263851 -7.074257
v 8.647395 1.268800 -7.054860
v 8.628759 1.266014 -7.035602
v 8.647352 1.257360 -7.019666
v 8.628911 1.242652 -7.008852
v 8.647395 1.223507 -7.003596
v 8.628757 1.205580 -7.005531
v 8.647597 1.182281 -7.019563
v 8.628463 1.178491 -7.028933
v 8.628551 1.173326 -7.056088
v 8.647395 1.173226 -7.056534
v 8.540224 1.249928 -7.054878
v 8.546731 1.250412 -7.066023
v 8.557952 1.250018 -7.071057
v 8.577406 1.251384 -7.059398
v 8.544993 1.250790 -7.038052
v 8.559972 1.249534 -7.031095
v 8.576760 1.250735 -7.041549
v 8.568979 1.249465 -7.034075
v 8.573368 1.039067 -7.062564
v 8.557946 1.044342 -7.070443
v 8.553778 1.038607 -7.067587
v 8.570967 1.044373 -7.067644
v 8.557952 1.250018 -7.071057
v 8.579075 1.044464 -7.056189
v 8.574340 1.038831 -7.043252
v 8.571738 1.212255 -7.066976
v 8.570662 1.224851 -7.067349
v 8.578686 1.203690 -7.057410
v 8.577406 1.251384 -7.059398
v 8.580366 1.238062 -7.052639
v 8.576760 1.250735 -7.041549
v 8.571790 1.227790 -7.035195
v 8.568979 1.249465 -7.034075
v 8.570662 1.214702 -7.034975
v 8.578979 1.203236 -7.044236
v 8.568979 1.044342 -7.034075
v 8.559972 1.249534 -7.031095
v 8.577172 1.044355 -7.041632
v 8.556095 1.038898 -7.033488
v 8.551666 1.044424 -7.032850
v 8.544993 1.250790 -7.038052
v 8.540802 1.044402 -7.046006
v 8.542762 1.038872 -7.050441
v 8.540224 1.249928 -7.054878
v 8.543918 1.043941 -7.063740
v 8.553778 1.038607 -7.067587
v 8.546731 1.250412 -7.066023
v 8.557946 1.044342 -7.070443
v 8.557952 1.250018 -7.071057
v 8.628551 1.173326 -7.056088
v 8.628646 1.205335 -7.059441
v 8.628463 1.178491 -7.028933
v 8.628364 1.182086 -7.080732
v 8.628646 1.206383 -7.043541
v 8.628646 1.218904 -7.068352
v 8.628757 1.205580 -7.005531
v 8.628561 1.206195 -7.097044
v 8.628646 1.219296 -7.035025
v 8.628787 1.234603 -7.097793
v 8.628911 1.242652 -7.008852
v 8.628618 1.235983 -7.059601
v 8.628646 1.233127 -7.041539
v 8.628758 1.263851 -7.074257
v 8.628759 1.266014 -7.035602
vn -0.0000 1.0000 -0.0000
vn -0.0000 -0.0000 1.0000
vn -0.0000 -1.0000 -0.0000
vn -0.0000 -0.0000 -1.0000
vn 1.0000 -0.0000 -0.0000
vn -0.7071 -0.0000 0.7071
vn -0.7071 0.7071 -0.0000
vn -0.7071 -0.0000 -0.7071
vn -0.7071 -0.7071 -0.0000
vn -0.6204 -0.0000 -0.7843
vn -0.8117 -0.0000 0.5841
vn -0.7070 0.7072 -0.0000
vn -0.7071 -0.0000 -0.7072
vn -1.0000 -0.0000 -0.0000
vn 0.0058 -1.0000 0.0015
vn -0.0028 -1.0000 0.0087
vn -0.0097 -0.9999 0.0092
vn 0.0093 -1.0000 0.0013
vn 0.0269 -0.9995 -0.0136
vn 0.0128 -0.4238 0.9057
vn -0.0197 -0.7309 0.6822
vn -0.0000 -0.8034 0.5954
vn -0.0230 -0.2036 0.9788
vn 0.0208 0.4577 0.8889
vn -0.0195 0.7591 0.6507
vn 0.0177 0.9592 0.2820
vn -0.0138 0.9910 -0.1329
vn 0.0176 0.8782 -0.4780
vn -0.0139 0.6087 -0.7932
vn 0.0226 0.2371 -0.9712
vn -0.0179 -0.1548 -0.9878
vn 0.0245 -0.7278 -0.6854
vn -0.0112 -0.8681 -0.4962
vn 0.0188 -0.9879 -0.1540
vn -0.0000 -0.9990 -0.0441
vn -0.0130 -0.9422 -0.3348
vn 0.1458 -0.8069 -0.5724
vn 0.1241 -0.8963 -0.4258
vn -0.0115 -0.3557 -0.9345
vn -0.1965 -0.2766 -0.9407
vn 0.0705 0.2831 -0.9565
vn 0.0046 0.6317 -0.7752
vn -0.0089 0.8938 -0.4483
vn -0.0103 0.9982 -0.0583
vn -0.0200 0.9469 0.3209
vn -0.0081 0.7525 0.6586
vn -0.0088 0.4458 0.8951
vn 0.0182 0.0563 0.9982
vn 0.0358 -0.3123 0.9493
vn -0.0386 -0.7655 0.6422
vn -0.0193 -0.9125 0.4086
vn 0.0307 -0.9744 0.2229
vn 0.0004 -0.9713 0.2379
vn -0.0271 0.9993 -0.0241
vn 0.0734 0.9936 0.0860
vn -0.0287 0.9993 -0.0236
vn -0.0276 0.9996 0.0054
vn -0.0058 0.9998 0.0190
vn 0.0293 0.9948 0.0975
vn -0.0371 0.9978 0.0551
vn 0.0936 0.9609 0.2607
vn 0.2185 -0.5575 -0.8009
vn 0.2188 -0.3419 -0.9139
vn 0.6715 -0.4772 -0.5668
vn 0.4841 -0.2740 -0.8310
vn 0.4397 0.0913 -0.8935
vn 0.9345 -0.2931 -0.2018
vn 0.7062 -0.6001 0.3757
vn 0.4280 0.0011 -0.9038
vn 0.4105 0.0134 -0.9118
vn 0.9279 0.0001 -0.3728
vn 0.8579 0.1254 -0.4982
vn 0.9969 0.0121 -0.0771
vn 0.8973 0.0609 0.4372
vn 0.4840 -0.0184 0.8749
vn 0.5062 0.0249 0.8620
vn 0.5273 -0.0011 0.8497
vn 0.9090 -0.0015 0.4169
vn 0.4031 -0.3030 0.8635
vn -0.0647 0.0047 0.9979
vn 0.8580 -0.2516 0.4478
vn -0.1474 -0.3989 0.9051
vn -0.4386 -0.2270 0.8695
vn -0.7635 0.0095 0.6458
vn -0.9209 -0.2582 0.2920
vn -0.8739 -0.4853 0.0295
vn -0.9921 0.0077 -0.1252
vn -0.7632 -0.3120 -0.5658
vn -0.4987 -0.3496 -0.7932
vn -0.6655 0.0008 -0.7464
vn -0.4295 -0.0491 -0.9017
vn -0.4105 -0.0044 -0.9119
vn -1.0000 0.0059 0.0001
vn -1.0000 0.0046 0.0044
vn -1.0000 0.0032 0.0017
vn -1.0000 0.0056 0.0053
vn -1.0000 0.0047 0.0013
vn -1.0000 0.0046 -0.0002
vn -1.0000 0.0048 0.0043
vn -1.0000 0.0079 -0.0005
vn -1.0000 0.0015 0.0051
vn -1.0000 0.0045 -0.0028
vn -1.0000 0.0033 0.0068
vn -1.0000 0.0029 -0.0018
vn -1.0000 0.0029 0.0053
vn -1.0000 0.0038 -0.0024
vn -1.0000 0.0033 0.0036
vt 0.029221 0.000488
vt 0.008072 0.000488
vt 0.029068 0.803833
vt 0.007927 0.803833
vt 0.365234 0.000488
vt 0.344238 0.000488
vt 0.348633 0.493652
vt 0.369629 0.493164
vt 0.086609 0.000488
vt 0.065491 0.000488
vt 0.065552 0.803833
vt 0.086670 0.803833
vt 0.440430 0.959991
vt 0.461670 0.959991
vt 0.461426 0.467285
vt 0.440430 0.467285
vt 0.331055 0.008301
vt 0.335205 0.485840
vt 0.000000 0.790649
vt 0.000146 0.013672
vt 0.057587 0.013672
vt 0.057617 0.790649
vt 0.985840 0.485352
vt 0.999023 0.493164
vt 0.999512 0.000488
vt 0.986328 0.008301
vt 0.807617 0.475098
vt 0.791504 0.475098
vt 0.807617 0.852051
vt 0.791504 0.852173
vt 0.694824 0.462891
vt 0.678711 0.462891
vt 0.678711 0.940125
vt 0.694824 0.940125
vt 0.397217 0.488770
vt 0.381348 0.488770
vt 0.381348 0.865723
vt 0.397217 0.865723
vt 0.770020 0.000488
vt 0.753906 0.000488
vt 0.754395 0.477539
vt 0.770020 0.477539
vt 0.664062 0.925598
vt 0.664062 0.477539
vt 0.776855 0.489746
vt 0.776855 0.837524
vt 0.366699 0.503174
vt 0.366943 0.851196
vt 0.739746 0.014648
vt 0.739746 0.462891
vt 0.332275 0.475098
vt 0.316406 0.475098
vt 0.332520 0.875183
vt 0.316650 0.875183
vt 0.845703 0.000488
vt 0.830078 0.000488
vt 0.830078 0.477539
vt 0.845703 0.477539
vt 0.858887 0.866699
vt 0.875000 0.866699
vt 0.874512 0.466797
vt 0.858887 0.466797
vt 0.905762 0.000488
vt 0.890137 0.000488
vt 0.890137 0.477539
vt 0.905762 0.477539
vt 0.815430 0.462891
vt 0.815430 0.014648
vt 0.302002 0.860596
vt 0.302002 0.489746
vt 0.889160 0.852173
vt 0.889160 0.480957
vt 0.875488 0.014648
vt 0.875488 0.462891
vt 0.425781 0.475098
vt 0.430420 0.955231
vt 0.430176 0.471680
vt 0.425781 0.952057
vt 0.095886 0.013672
vt 0.091370 0.010254
vt 0.095947 0.790649
vt 0.091431 0.793823
vt 0.384277 0.485352
vt 0.379883 0.008301
vt 0.379639 0.488281
vt 0.375488 0.004883
vt 0.038300 0.790649
vt 0.038452 0.013672
vt 0.033813 0.793823
vt 0.033966 0.010254
vt 0.786133 0.462891
vt 0.781250 0.011719
vt 0.781250 0.466309
vt 0.785645 0.014648
vt 0.349609 0.500000
vt 0.349609 0.854370
vt 0.354004 0.503174
vt 0.354248 0.851196
vt 0.651367 0.925598
vt 0.646973 0.474609
vt 0.646973 0.928772
vt 0.651367 0.477539
vt 0.764160 0.837524
vt 0.759766 0.486816
vt 0.759766 0.840698
vt 0.764160 0.489746
vt 0.862793 0.462891
vt 0.858398 0.011719
vt 0.858398 0.466309
vt 0.862793 0.014648
vt 0.906738 0.855347
vt 0.906250 0.478027
vt 0.901855 0.852173
vt 0.901855 0.480957
vt 0.802734 0.462891
vt 0.798340 0.011719
vt 0.798340 0.466309
vt 0.802734 0.014648
vt 0.289307 0.860596
vt 0.284912 0.486328
vt 0.284912 0.863770
vt 0.289307 0.489746
vt 0.113892 0.790649
vt 0.113831 0.013672
vt 0.402100 0.485352
vt 0.397949 0.007812
vt 0.056274 0.790649
vt 0.056427 0.013672
vt 0.407715 0.475098
vt 0.407959 0.952057
vt 0.727051 0.462891
vt 0.727051 0.014648
vt 0.635742 0.940125
vt 0.635742 0.462891
vt 0.338379 0.865723
vt 0.338135 0.488770
vt 0.748535 0.852173
vt 0.748535 0.475098
vt 0.787109 0.477539
vt 0.786621 0.000488
vt 0.917969 0.866699
vt 0.917969 0.466797
vt 0.846680 0.477539
vt 0.846680 0.000488
vt 0.273438 0.475098
vt 0.273438 0.875183
vt 0.054382 0.006836
vt 0.055573 0.000000
vt 0.052368 0.002930
vt 0.059296 0.001953
vt 0.058685 0.006348
vt 0.729492 0.474609
vt 0.746582 0.471680
vt 0.729492 0.471680
vt 0.746582 0.475586
vt 0.729492 0.478516
vt 0.746582 0.479980
vt 0.729492 0.481445
vt 0.746582 0.482910
vt 0.729492 0.484375
vt 0.746582 0.485840
vt 0.729492 0.486816
vt 0.746582 0.488770
vt 0.729492 0.491211
vt 0.746582 0.492188
vt 0.729492 0.495117
vt 0.746582 0.495117
vt 0.906738 0.000000
vt 0.906738 0.005859
vt 0.910645 0.000488
vt 0.910645 0.011719
vt 0.906738 0.012207
vt 0.906738 0.018066
vt 0.910645 0.022461
vt 0.906738 0.026367
vt 0.910645 0.030762
vt 0.906738 0.034668
vt 0.910645 0.038574
vt 0.906738 0.042480
vt 0.910645 0.046387
vt 0.906738 0.050293
vt 0.910645 0.056152
vt 0.906738 0.058105
vt 0.906738 0.063965
vt 0.910645 0.063965
vt 0.041992 0.003418
vt 0.040497 0.000977
vt 0.037903 0.000000
vt 0.040222 0.007812
vt 0.034515 0.001953
vt 0.033569 0.005371
vt 0.036438 0.008301
vt 0.034454 0.007324
vt 0.513184 0.593994
vt 0.512695 0.592529
vt 0.508789 0.593750
vt 0.509766 0.592285
vt 0.512695 0.548096
vt 0.506836 0.592285
vt 0.503906 0.593750
vt 0.509766 0.556152
vt 0.510254 0.553467
vt 0.507324 0.558105
vt 0.507812 0.547607
vt 0.506348 0.550537
vt 0.503906 0.547852
vt 0.501953 0.552734
vt 0.501465 0.548340
vt 0.501953 0.555664
vt 0.504395 0.558350
vt 0.501465 0.592285
vt 0.499756 0.548096
vt 0.503906 0.592285
vt 0.498779 0.593750
vt 0.497803 0.592285
vt 0.496094 0.547852
vt 0.494141 0.592285
vt 0.493164 0.593750
vt 0.492432 0.548096
vt 0.490479 0.592529
vt 0.488525 0.593750
vt 0.489502 0.547852
vt 0.487061 0.592529
vt 0.487061 0.548096
vt 0.145874 0.000977
vt 0.145630 0.009766
vt 0.150391 0.004395
vt 0.152344 0.009766
vt 0.143188 0.006836
vt 0.144653 0.012695
vt 0.138184 0.000488
vt 0.150635 0.015625
vt 0.139893 0.007324
vt 0.146118 0.020020
vt 0.132446 0.006348
vt 0.140625 0.013672
vt 0.138550 0.010254
vt 0.138062 0.020020
vt 0.132324 0.014160
s 1
f 3/1/1 2/2/1 1/3/1
f 4/4/1 1/3/1 2/2/1
f 7/5/2 6/6/2 5/7/2
f 5/7/2 8/8/2 7/5/2
f 11/9/3 10/10/3 9/11/3
f 9/11/3 12/12/3 11/9/3
f 15/13/4 14/14/4 13/15/4
f 13/15/4 16/16/4 15/13/4
f 19/6/5 18/17/5 17/7/5
f 20/18/5 17/7/5 18/17/5
f 23/19/5 22/4/5 21/2/5
f 24/20/5 23/19/5 21/2/5
f 27/21/5 26/11/5 25/10/5
f 28/22/5 26/11/5 27/21/5
f 31/23/5 30/24/5 29/25/5
f 32/26/5 31/23/5 29/25/5
f 35/27/1 34/28/1 33/29/1
f 36/30/1 33/29/1 34/28/1
f 39/31/2 38/32/2 37/33/2
f 37/33/2 40/34/2 39/31/2
f 43/35/3 42/36/3 41/37/3
f 41/37/3 44/38/3 43/35/3
f 47/39/4 46/40/4 45/41/4
f 45/41/4 48/42/4 47/39/4
f 51/43/5 50/33/5 49/32/5
f 52/44/5 51/43/5 49/32/5
f 55/28/5 54/45/5 53/30/5
f 56/46/5 53/30/5 54/45/5
f 59/47/5 58/48/5 57/36/5
f 60/37/5 57/36/5 58/48/5
f 63/40/5 62/49/5 61/41/5
f 64/50/5 61/41/5 62/49/5
f 67/51/1 66/52/1 65/53/1
f 68/54/1 65/53/1 66/52/1
f 71/55/2 70/56/2 69/57/2
f 69/57/2 72/58/2 71/55/2
f 75/59/3 74/60/3 73/61/3
f 73/61/3 76/62/3 75/59/3
f 79/63/4 78/64/4 77/65/4
f 77/65/4 80/66/4 79/63/4
f 83/67/5 82/57/5 81/56/5
f 84/68/5 83/67/5 81/56/5
f 87/69/5 86/54/5 85/52/5
f 88/70/5 87/69/5 85/52/5
f 91/71/5 90/61/5 89/60/5
f 92/72/5 90/61/5 91/71/5
f 95/64/5 94/73/5 93/65/5
f 96/74/5 93/65/5 94/73/5
f 99/75/6 98/76/6 97/77/6
f 100/78/6 98/76/6 99/75/6
f 103/79/7 102/80/7 101/81/7
f 101/81/7 102/80/7 104/82/7
f 107/83/8 106/84/8 105/85/8
f 108/86/8 105/85/8 106/84/8
f 111/87/9 110/88/9 109/89/9
f 112/90/9 109/89/9 110/88/9
f 115/91/6 114/92/6 113/93/6
f 116/94/6 114/92/6 115/91/6
f 119/95/7 118/96/7 117/97/7
f 120/98/7 117/97/7 118/96/7
f 123/99/10 122/100/10 121/101/10
f 124/102/10 122/100/10 123/99/10
f 127/103/9 126/104/9 125/105/9
f 128/106/9 126/104/9 127/103/9
f 131/107/11 130/108/11 129/109/11
f 132/110/11 130/108/11 131/107/11
f 135/111/12 134/112/7 133/113/12
f 136/114/7 133/113/12 134/112/7
f 139/115/13 138/116/8 137/117/13
f 140/118/8 138/116/8 139/115/13
f 143/119/9 142/120/9 141/121/9
f 144/122/9 142/120/9 143/119/9
f 147/81/1 146/123/1 145/79/1
f 148/124/1 145/79/1 146/123/1
f 151/83/4 150/125/4 149/126/4
f 149/126/4 152/84/4 151/83/4
f 155/87/3 154/127/3 153/128/3
f 153/128/3 156/88/3 155/87/3
f 159/75/2 158/129/2 157/130/2
f 157/130/2 160/78/2 159/75/2
f 163/85/14 162/86/14 161/8/14
f 164/5/14 161/8/14 162/86/14
f 167/80/14 166/9/14 165/12/14
f 168/82/14 167/80/14 165/12/14
f 171/77/14 170/13/14 169/16/14
f 172/76/14 170/13/14 171/77/14
f 175/89/14 174/1/14 173/3/14
f 176/90/14 174/1/14 175/89/14
f 179/98/1 178/48/1 177/97/1
f 180/47/1 177/97/1 178/48/1
f 183/99/4 182/43/4 181/44/4
f 181/44/4 184/102/4 183/99/4
f 187/103/3 186/46/3 185/45/3
f 185/45/3 188/106/3 187/103/3
f 191/131/2 190/50/2 189/49/2
f 189/49/2 192/132/2 191/131/2
f 195/101/14 194/100/14 193/133/14
f 196/134/14 193/133/14 194/100/14
f 199/135/14 198/96/14 197/136/14
f 200/95/14 197/136/14 198/96/14
f 203/93/14 202/92/14 201/42/14
f 204/39/14 201/42/14 202/92/14
f 207/105/14 206/104/14 205/137/14
f 208/138/14 205/137/14 206/104/14
f 211/114/1 210/72/1 209/113/1
f 212/71/1 209/113/1 210/72/1
f 215/115/4 214/67/4 213/68/4
f 213/68/4 216/118/4 215/115/4
f 219/119/3 218/69/3 217/70/3
f 217/70/3 220/122/3 219/119/3
f 223/107/2 222/74/2 221/73/2
f 221/73/2 224/110/2 223/107/2
f 227/139/14 226/117/14 225/140/14
f 228/116/14 225/140/14 226/117/14
f 231/111/14 230/141/14 229/142/14
f 232/112/14 231/111/14 229/142/14
f 235/109/14 234/108/14 233/143/14
f 236/144/14 233/143/14 234/108/14
f 239/121/14 238/145/14 237/146/14
f 240/120/14 238/145/14 239/121/14
f 243/147/15 242/148/16 241/149/17
f 243/147/15 244/150/18 242/148/16
f 243/147/15 245/151/19 244/150/18
f 248/152/20 247/153/21 246/154/22
f 247/153/21 248/152/20 249/155/23
f 250/156/24 249/155/23 248/152/20
f 249/155/23 250/156/24 251/157/25
f 250/156/24 252/158/26 251/157/25
f 253/159/27 251/157/25 252/158/26
f 252/158/26 254/160/28 253/159/27
f 255/161/29 253/159/27 254/160/28
f 256/162/30 255/161/29 254/160/28
f 255/161/29 256/162/30 257/163/31
f 258/164/32 257/163/31 256/162/30
f 257/163/31 258/164/32 259/165/33
f 260/166/34 259/165/33 258/164/32
f 259/165/33 260/166/34 261/167/35
f 264/168/36 263/169/37 262/170/38
f 265/171/39 262/170/38 263/169/37
f 263/169/37 266/172/40 265/171/39
f 266/172/40 267/173/41 265/171/39
f 268/174/42 265/171/39 267/173/41
f 267/173/41 269/175/43 268/174/42
f 269/175/43 270/176/44 268/174/42
f 271/177/45 270/176/44 269/175/43
f 271/177/45 272/178/46 270/176/44
f 273/179/47 272/178/46 271/177/45
f 274/180/48 272/178/46 273/179/47
f 273/179/47 275/181/49 274/180/48
f 276/182/50 274/180/48 275/181/49
f 275/181/49 277/183/51 276/182/50
f 277/183/51 278/184/52 276/182/50
f 279/185/53 276/182/50 278/184/52
f 282/186/54 281/187/55 280/188/56
f 283/189/57 282/186/54 280/188/56
f 283/189/57 280/188/56 284/190/58
f 283/189/57 284/190/58 285/191/59
f 283/189/57 285/191/59 286/192/60
f 287/193/61 286/192/60 285/191/59
f 290/194/62 289/195/63 288/196/64
f 291/197/65 288/196/64 289/195/63
f 291/197/65 289/195/63 292/198/66
f 291/197/65 293/199/67 288/196/64
f 288/196/64 293/199/67 294/200/68
f 295/201/69 291/197/65 292/198/66
f 296/202/70 295/201/69 292/198/66
f 297/203/71 291/197/65 295/201/69
f 293/199/67 291/197/65 297/203/71
f 298/204/72 296/202/70 292/198/66
f 299/205/73 296/202/70 298/204/72
f 298/204/72 300/206/74 299/205/73
f 301/207/75 299/205/73 300/206/74
f 301/207/75 300/206/74 302/208/76
f 301/207/75 302/208/76 303/209/77
f 293/199/67 297/203/71 304/210/78
f 305/211/79 303/209/77 302/208/76
f 303/209/77 305/211/79 304/210/78
f 302/208/76 306/212/80 305/211/79
f 293/199/67 304/210/78 307/213/81
f 307/213/81 304/210/78 305/211/79
f 307/213/81 294/200/68 293/199/67
f 294/200/68 307/213/81 305/211/79
f 294/200/68 305/211/79 308/214/82
f 305/211/79 306/212/80 309/215/83
f 308/214/82 305/211/79 309/215/83
f 306/212/80 310/216/84 309/215/83
f 311/217/85 308/214/82 309/215/83
f 309/215/83 310/216/84 311/217/85
f 308/214/82 311/217/85 312/218/86
f 313/219/87 311/217/85 310/216/84
f 314/220/88 312/218/86 311/217/85
f 311/217/85 313/219/87 314/220/88
f 312/218/86 314/220/88 315/221/89
f 316/222/90 314/220/88 313/219/87
f 317/223/91 315/221/89 314/220/88
f 318/224/92 314/220/88 316/222/90
f 317/223/91 314/220/88 318/224/92
f 321/225/93 320/226/94 319/227/95
f 319/227/95 320/226/94 322/228/96
f 320/226/94 321/225/93 323/229/97
f 320/226/94 324/230/98 322/228/96
f 321/225/93 325/231/99 323/229/97
f 326/232/100 322/228/96 324/230/98
f 327/233/101 323/229/97 325/231/99
f 326/232/100 324/230/98 328/234/102
f 329/235/103 327/233/101 325/231/99
f 330/236/104 328/234/102 324/230/98
f 327/233/101 329/235/103 331/237/105
f 332/238/106 328/234/102 330/236/104
f 333/239/107 331/237/105 329/235/103
f 332/238/106 330/236/104 333/239/107
f 330/236/104 331/237/105 333/239/107
