# Blender 4.0.2
# www.blender.org
mtllib SM_DoorWindows_LOD4.mtl
o SM_DoorWindows_LOD4
v 8.653176 2.580420 -4.922158
v 8.562744 2.476189 -9.022993
v 8.780489 2.494142 -8.952636
v 8.653176 2.580420 -4.922158
v 8.788260 0.135222 -4.965319
v 8.587951 0.019380 -4.875727
v 8.708068 -0.037547 -9.019012
v 8.587951 0.019380 -4.875727
v 8.788260 0.135222 -4.965319
v 8.708068 -0.037547 -9.019012
v 8.780489 2.494142 -8.952636
v 8.562744 2.476189 -9.022993
v 8.788260 0.135222 -4.965319
v 8.653176 2.580420 -4.922158
v 8.715031 2.340487 -5.015022
v 8.653176 2.580420 -4.922158
v 8.780489 2.494142 -8.952636
v 8.715031 2.340487 -5.015022
v 8.662507 2.552035 -6.948818
v 8.570009 2.448061 -8.923100
v 8.755646 2.435192 -8.895330
v 8.690761 0.013376 -9.004927
v 8.755646 2.435192 -8.895330
v 8.570009 2.448061 -8.923100
v 8.517246 0.028565 -7.038868
v 8.662507 2.552035 -6.948818
v 8.698997 2.351893 -7.152783
v 8.755646 2.435192 -8.895330
v 8.698997 2.351893 -7.152783
v 8.662507 2.552035 -6.948818
v 8.690761 0.013376 -9.004927
v 8.517246 0.028565 -7.038868
v 8.690564 0.132728 -8.835279
v 8.755646 2.435192 -8.895330
v 8.690761 0.013376 -9.004927
v 8.690564 0.132728 -8.835279
v 8.788260 0.135222 -4.965319
v 8.775057 0.079273 -6.966003
v 8.600847 0.036902 -6.956527
v 8.706277 2.493701 -7.020506
v 8.600847 0.036902 -6.956527
v 8.775057 0.079273 -6.966003
v 8.715031 2.340487 -5.015022
v 8.706277 2.493701 -7.020506
v 8.704897 2.359407 -6.879523
v 8.775057 0.079273 -6.966003
v 8.704897 2.359407 -6.879523
v 8.706277 2.493701 -7.020506
v 8.587951 0.019380 -4.875727
v 8.708068 -0.037547 -9.019012
v 8.641647 0.038074 -8.936668
v 8.708068 -0.037547 -9.019012
v 8.562744 2.476189 -9.022993
v 8.641647 0.038074 -8.936668
v 8.698997 2.351893 -7.152783
v 8.755646 2.435192 -8.895330
v 8.570009 2.448061 -8.923100
v 8.690564 0.132728 -8.835279
v 8.570009 2.448061 -8.923100
v 8.755646 2.435192 -8.895330
v 8.662507 2.552035 -6.948818
v 8.517246 0.028565 -7.038868
v 8.698997 2.351893 -7.152783
v 8.517246 0.028565 -7.038868
v 8.690761 0.013376 -9.004927
v 8.690564 0.132728 -8.835279
v 8.690761 0.013376 -9.004927
v 8.570009 2.448061 -8.923100
v 8.690564 0.132728 -8.835279
v 8.698997 2.351893 -7.152783
v 8.570009 2.448061 -8.923100
v 8.662507 2.552035 -6.948818
v 8.788260 0.135222 -4.965319
v 8.600847 0.036902 -6.956527
v 8.775057 0.079273 -6.966003
v 8.704897 2.359407 -6.879523
v 8.775057 0.079273 -6.966003
v 8.600847 0.036902 -6.956527
v 8.704897 2.359407 -6.879523
v 8.600847 0.036902 -6.956527
v 8.706277 2.493701 -7.020506
v 8.706277 2.493701 -7.020506
v 8.715031 2.340487 -5.015022
v 8.704897 2.359407 -6.879523
v 8.641647 0.038074 -8.936668
v 8.788260 0.135222 -4.965319
v 8.587951 0.019380 -4.875727
v 8.708068 -0.037547 -9.019012
v 8.788260 0.135222 -4.965319
v 8.715031 2.340487 -5.015022
v 8.653176 2.580420 -4.922158
v 8.587951 0.019380 -4.875727
v 8.715031 2.340487 -5.015022
v 8.780489 2.494142 -8.952636
v 8.562744 2.476189 -9.022993
v 8.653176 2.580420 -4.922158
v 8.780489 2.494142 -8.952636
v 8.708068 -0.037547 -9.019012
v 8.641647 0.038074 -8.936668
v 8.562744 2.476189 -9.022993
vn -0.0745 0.9969 -0.0237
vn 0.4053 0.0063 0.9142
vn 0.5093 -0.8602 0.0266
vn 0.3062 0.0162 -0.9518
vn 0.8761 0.0399 0.4804
vn 0.9704 0.2403 0.0255
vn 0.0774 0.9954 -0.0561
vn 0.1506 0.0407 -0.9878
vn 0.9695 -0.0642 0.2365
vn 0.9893 0.1407 0.0389
vn 0.9884 -0.1237 0.0882
vn 0.9994 -0.0277 0.0207
vn 0.2376 -0.9710 0.0256
vn -0.0485 -0.0239 -0.9985
vn 0.9999 -0.0161 -0.0056
vn 0.9989 0.0293 0.0377
vn -0.7583 -0.6518 -0.0130
vn -0.7982 -0.0471 -0.6006
vn -0.0617 -0.9969 -0.0497
vn -0.1459 0.0299 0.9889
vn -0.9695 0.0642 -0.2365
vn -0.9884 0.1237 -0.0882
vn -0.9981 -0.0507 0.0345
vn -0.9701 -0.2358 0.0579
vn -0.2376 0.9710 -0.0256
vn 0.0630 -0.0359 0.9974
vn -0.9985 0.0437 0.0318
vn -0.9999 0.0161 0.0056
vn -0.5015 0.8651 -0.0026
vn -0.4904 0.8715 -0.0032
vn 0.7093 0.7036 -0.0434
vn 0.7266 0.6857 -0.0436
vn -0.8151 -0.0348 -0.5783
vn -0.8761 -0.0399 -0.4804
vn -0.4177 -0.0070 -0.9086
vn -0.4053 -0.0063 -0.9142
vn 0.0453 -0.9983 -0.0355
vn 0.0941 -0.9949 -0.0373
vn -0.9575 -0.2870 0.0267
vn -0.9653 -0.2597 0.0279
vn 0.7339 -0.0371 0.6782
vn 0.7601 -0.0387 0.6487
vn -0.2832 0.0222 0.9588
vn -0.3091 0.0237 0.9507
vt 0.001118 0.793945
vt 0.043793 0.807739
vt 0.023666 0.002441
vt 0.373779 0.004395
vt 0.336426 0.027344
vt 0.363770 0.507080
vt 0.058319 0.793579
vt 0.096191 0.810913
vt 0.073242 -0.002930
vt 0.426025 0.953583
vt 0.468262 0.957062
vt 0.453857 0.459961
vt 0.333496 0.460938
vt 0.348145 0.507568
vt 0.332275 0.027344
vt -0.015808 0.020508
vt 0.004623 0.793945
vt 0.023834 0.001953
vt 0.786133 0.844238
vt 0.821289 0.849731
vt 0.804688 0.465820
vt 0.783203 0.004395
vt 0.748535 0.006836
vt 0.762207 0.482910
vt 0.660645 0.917175
vt 0.682617 0.956329
vt 0.677246 0.462402
vt 0.803711 0.474121
vt 0.768555 0.490723
vt 0.785156 0.842651
vt 0.363037 0.508545
vt 0.380127 0.859375
vt 0.385742 0.472656
vt 0.734375 0.458984
vt 0.763672 0.482910
vt 0.746582 0.006836
vt 0.847656 0.859131
vt 0.880371 0.860962
vt 0.888184 0.465332
vt 0.884277 0.469727
vt 0.915527 0.478027
vt 0.897949 -0.004883
vt 0.298828 0.854370
vt 0.321533 0.879639
vt 0.293945 0.484863
vt 0.894531 -0.004883
vt 0.872559 0.021484
vt 0.094360 0.013184
vt 0.081055 -0.002930
vt 0.089783 0.810913
vt 0.427246 0.474609
vt 0.440918 0.953674
vt 0.442627 0.459961
vt 0.749023 0.849976
vt 0.782715 0.844238
vt 0.772461 0.496094
vt 0.744629 0.006836
vt 0.712402 0.003906
vt 0.732422 0.458984
vt 0.651855 0.917236
vt 0.644043 0.461426
vt 0.631348 0.956573
vt 0.356689 0.508545
vt 0.333740 0.471680
vt 0.349121 0.869751
vt 0.790039 0.458984
vt 0.770508 0.004395
vt 0.735840 0.476562
vt 0.751953 0.848633
vt 0.772461 0.485352
vt 0.883789 0.862671
vt 0.912598 0.860962
vt 0.884277 0.463867
vt 0.849609 0.478027
vt 0.880371 0.469727
vt 0.868164 0.021484
vt 0.842285 -0.004883
vt 0.855469 0.478027
vt 0.865723 0.021484
vt 0.291504 0.853027
vt 0.296875 0.483887
vt 0.268799 0.880066
vt 0.083984 0.810913
vt 0.116638 0.793335
vt 0.093384 0.013184
vt 0.106262 -0.002930
vt 0.379639 0.506836
vt 0.399658 0.459961
vt 0.403809 0.026855
vt 0.368652 0.004395
vt 0.021133 0.807739
vt 0.063049 0.793945
vt 0.056915 0.020508
vt 0.032288 0.002441
vt 0.428223 0.474609
vt 0.415283 0.459961
vt 0.401123 0.957092
vt 0.442139 0.953583
s 1
f 3/1/1 2/2/1 1/3/1
f 6/4/2 5/5/2 4/6/2
f 9/7/3 8/8/3 7/9/3
f 12/10/4 11/11/4 10/12/4
f 15/13/5 14/14/5 13/15/5
f 18/16/6 17/17/6 16/18/6
f 21/19/7 20/20/7 19/21/7
f 24/22/8 23/23/8 22/24/8
f 27/25/9 26/26/9 25/27/9
f 30/28/10 29/29/10 28/30/10
f 33/31/11 32/32/11 31/33/11
f 36/34/12 35/35/12 34/36/12
f 39/37/13 38/38/13 37/39/13
f 42/40/14 41/41/14 40/42/14
f 45/43/15 44/44/15 43/45/15
f 48/46/16 47/47/16 46/40/16
f 51/48/17 50/49/17 49/50/17
f 54/51/18 53/52/18 52/53/18
f 57/54/19 56/55/19 55/56/19
f 60/57/20 59/58/20 58/59/20
f 63/60/21 62/61/21 61/62/21
f 66/63/22 65/64/22 64/65/22
f 69/66/23 68/67/23 67/24/23
f 72/68/24 71/69/24 70/70/24
f 75/71/25 74/72/25 73/73/25
f 78/74/26 77/75/26 76/76/26
f 81/77/27 80/78/27 79/79/27
f 84/80/28 83/81/28 82/82/28
f 87/83/29 86/84/30 85/85/31
f 88/86/32 85/85/31 86/84/30
f 91/87/33 90/88/34 89/89/35
f 89/89/35 92/90/36 91/87/33
f 95/91/37 94/92/38 93/93/39
f 93/93/39 96/94/40 95/91/37
f 99/95/41 98/96/42 97/97/43
f 97/97/43 100/98/44 99/95/41
