# Blender 4.0.2
# www.blender.org
mtllib SM_DoorWindows_LOD2.mtl
o SM_DoorWindows_LOD2
v 8.541219 1.041391 -7.035021
v 8.586844 1.037276 -7.050035
v 8.555779 1.032430 -7.072149
v 8.578051 1.226786 -7.029008
v 8.535193 1.252429 -7.046168
v 8.559976 1.249938 -7.073915
v 8.638179 2.508943 -9.003176
v 8.745817 2.508945 -4.911650
v 8.638178 2.508945 -4.911650
v 8.745818 2.508943 -9.003176
v 8.745817 2.508945 -4.911650
v 8.745817 -0.001212 -4.911650
v 8.638178 -0.001212 -4.911650
v 8.638178 2.508945 -4.911650
v 8.745817 -0.001212 -4.911650
v 8.745818 -0.001214 -9.003176
v 8.638179 -0.001214 -9.003176
v 8.638178 -0.001212 -4.911650
v 8.745818 -0.001214 -9.003176
v 8.745818 2.508943 -9.003176
v 8.638179 2.508943 -9.003176
v 8.638179 -0.001214 -9.003176
v 8.745817 2.508945 -4.911650
v 8.745817 0.039153 -4.978919
v 8.745817 -0.001212 -4.911650
v 8.745817 2.468580 -4.978919
v 8.745817 2.508945 -4.911650
v 8.745818 2.508943 -9.003176
v 8.745818 2.468578 -8.935901
v 8.745817 2.468580 -4.978919
v 8.745818 -0.001214 -9.003176
v 8.745817 -0.001212 -4.911650
v 8.745818 0.039151 -8.935901
v 8.745817 0.039153 -4.978919
v 8.745818 2.508943 -9.003176
v 8.745818 -0.001214 -9.003176
v 8.745818 0.039151 -8.935901
v 8.745818 2.468578 -8.935901
v 8.646816 2.468578 -8.935901
v 8.727546 2.468580 -6.995138
v 8.646815 2.468580 -6.995138
v 8.727546 2.468578 -8.935901
v 8.727546 2.468580 -6.995138
v 8.727546 0.039151 -6.995139
v 8.646815 0.039151 -6.995139
v 8.646815 2.468580 -6.995138
v 8.727546 0.039151 -6.995139
v 8.727546 0.039151 -8.935901
v 8.646816 0.039151 -8.935901
v 8.646815 0.039151 -6.995139
v 8.727546 0.039151 -8.935901
v 8.727546 2.468578 -8.935901
v 8.646816 2.468578 -8.935901
v 8.646816 0.039151 -8.935901
v 8.727546 0.039151 -6.995139
v 8.727546 2.468580 -6.995138
v 8.727546 2.394577 -7.119422
v 8.727546 0.113153 -7.119423
v 8.727546 2.468578 -8.935901
v 8.727546 2.394577 -7.119422
v 8.727546 2.468580 -6.995138
v 8.727546 2.394576 -8.861898
v 8.727546 0.039151 -8.935901
v 8.727546 0.113153 -7.119423
v 8.727546 0.113153 -8.861898
v 8.727546 0.039151 -6.995139
v 8.727546 0.039151 -8.935901
v 8.727546 2.394576 -8.861898
v 8.727546 2.468578 -8.935901
v 8.727546 0.113153 -8.861898
v 8.665088 2.468580 -6.995138
v 8.745817 2.468580 -4.978919
v 8.665088 2.468580 -4.978919
v 8.745818 2.468580 -6.995138
v 8.745817 2.468580 -4.978919
v 8.745817 0.039153 -4.978919
v 8.665088 0.039153 -4.978919
v 8.665088 2.468580 -4.978919
v 8.745817 0.039153 -4.978919
v 8.745818 0.039151 -6.995139
v 8.665088 0.039151 -6.995139
v 8.665088 0.039153 -4.978919
v 8.745818 0.039151 -6.995139
v 8.745818 2.468580 -6.995138
v 8.665088 2.468580 -6.995138
v 8.665088 0.039151 -6.995139
v 8.745817 0.039153 -4.978919
v 8.745817 2.468580 -4.978919
v 8.745817 2.394578 -5.052921
v 8.745817 0.113155 -5.052920
v 8.745817 2.468580 -4.978919
v 8.745818 2.468580 -6.995138
v 8.745818 2.394577 -6.913763
v 8.745817 2.394578 -5.052921
v 8.745818 0.039151 -6.995139
v 8.745817 0.039153 -4.978919
v 8.745818 0.113153 -6.913762
v 8.745817 0.113155 -5.052920
v 8.745818 0.039151 -6.995139
v 8.745818 2.394577 -6.913763
v 8.745818 2.468580 -6.995138
v 8.745818 0.113153 -6.913762
v 8.638179 0.023007 -8.952045
v 8.638179 2.484722 -8.952045
v 8.654323 0.039151 -8.935901
v 8.654323 2.468578 -8.935901
v 8.654323 0.039153 -4.978919
v 8.638179 0.023007 -8.952045
v 8.654323 0.039151 -8.935901
v 8.638178 0.023008 -4.962774
v 8.638178 2.484724 -4.962775
v 8.654323 0.039153 -4.978919
v 8.654323 2.468580 -4.978919
v 8.638178 0.023008 -4.962774
v 8.638179 2.484722 -8.952045
v 8.654323 2.468580 -4.978919
v 8.654323 2.468578 -8.935901
v 8.638178 2.484724 -4.962775
v 8.646816 0.097009 -8.878043
v 8.646816 2.410720 -8.878043
v 8.662961 0.113153 -8.861898
v 8.662961 2.394576 -8.861898
v 8.662961 0.113153 -8.861898
v 8.646815 0.097009 -7.106651
v 8.646816 0.097009 -8.878043
v 8.662960 0.113153 -7.119423
v 8.646815 2.410721 -7.106651
v 8.646815 0.097009 -7.106651
v 8.662960 2.394577 -7.119422
v 8.662960 0.113153 -7.119423
v 8.646816 2.410720 -8.878043
v 8.646815 2.410721 -7.106651
v 8.662961 2.394576 -8.861898
v 8.662960 2.394577 -7.119422
v 8.665088 0.097009 -6.936196
v 8.665088 2.410722 -6.936196
v 8.681232 0.113153 -6.913762
v 8.681232 2.394577 -6.913763
v 8.681232 0.113153 -6.913762
v 8.665088 0.097010 -5.036776
v 8.665088 0.097009 -6.936196
v 8.681232 0.113155 -5.052920
v 8.665088 2.410722 -5.036777
v 8.665088 0.097010 -5.036776
v 8.681232 2.394578 -5.052921
v 8.681232 0.113155 -5.052920
v 8.665088 2.410722 -6.936196
v 8.665088 2.410722 -5.036777
v 8.681232 2.394577 -6.913763
v 8.681232 2.394578 -5.052921
v 8.654323 0.039151 -8.935901
v 8.745817 0.039153 -4.978919
v 8.654323 0.039153 -4.978919
v 8.745818 0.039151 -8.935901
v 8.745817 0.039153 -4.978919
v 8.745817 2.468580 -4.978919
v 8.654323 2.468580 -4.978919
v 8.654323 0.039153 -4.978919
v 8.745817 2.468580 -4.978919
v 8.745818 2.468578 -8.935901
v 8.654323 2.468578 -8.935901
v 8.654323 2.468580 -4.978919
v 8.745818 2.468578 -8.935901
v 8.745818 0.039151 -8.935901
v 8.654323 0.039151 -8.935901
v 8.654323 2.468578 -8.935901
v 8.638178 2.508945 -4.911650
v 8.638178 0.023008 -4.962774
v 8.638178 2.484724 -4.962775
v 8.638178 -0.001212 -4.911650
v 8.638178 -0.001212 -4.911650
v 8.638179 -0.001214 -9.003176
v 8.638179 0.023007 -8.952045
v 8.638178 0.023008 -4.962774
v 8.638179 -0.001214 -9.003176
v 8.638179 2.508943 -9.003176
v 8.638179 0.023007 -8.952045
v 8.638179 2.484722 -8.952045
v 8.638179 2.508943 -9.003176
v 8.638178 2.508945 -4.911650
v 8.638179 2.484722 -8.952045
v 8.638178 2.484724 -4.962775
v 8.662961 0.113153 -8.861898
v 8.727546 0.113153 -7.119423
v 8.662960 0.113153 -7.119423
v 8.727546 0.113153 -8.861898
v 8.727546 0.113153 -7.119423
v 8.727546 2.394577 -7.119422
v 8.662960 2.394577 -7.119422
v 8.662960 0.113153 -7.119423
v 8.727546 2.394577 -7.119422
v 8.727546 2.394576 -8.861898
v 8.662961 2.394576 -8.861898
v 8.662960 2.394577 -7.119422
v 8.727546 2.394576 -8.861898
v 8.727546 0.113153 -8.861898
v 8.662961 0.113153 -8.861898
v 8.662961 2.394576 -8.861898
v 8.646815 2.468580 -6.995138
v 8.646815 0.097009 -7.106651
v 8.646815 2.410721 -7.106651
v 8.646815 0.039151 -6.995139
v 8.646816 0.039151 -8.935901
v 8.646815 0.097009 -7.106651
v 8.646815 0.039151 -6.995139
v 8.646816 0.097009 -8.878043
v 8.646816 0.039151 -8.935901
v 8.646816 2.410720 -8.878043
v 8.646816 0.097009 -8.878043
v 8.646816 2.468578 -8.935901
v 8.646816 2.468578 -8.935901
v 8.646815 2.410721 -7.106651
v 8.646816 2.410720 -8.878043
v 8.646815 2.468580 -6.995138
v 8.681232 0.113153 -6.913762
v 8.745817 0.113155 -5.052920
v 8.681232 0.113155 -5.052920
v 8.745818 0.113153 -6.913762
v 8.745817 0.113155 -5.052920
v 8.745817 2.394578 -5.052921
v 8.681232 2.394578 -5.052921
v 8.681232 0.113155 -5.052920
v 8.745817 2.394578 -5.052921
v 8.745818 2.394577 -6.913763
v 8.681232 2.394577 -6.913763
v 8.681232 2.394578 -5.052921
v 8.745818 2.394577 -6.913763
v 8.745818 0.113153 -6.913762
v 8.681232 0.113153 -6.913762
v 8.681232 2.394577 -6.913763
v 8.665088 0.039153 -4.978919
v 8.665088 2.410722 -5.036777
v 8.665088 2.468580 -4.978919
v 8.665088 0.097010 -5.036776
v 8.665088 0.039153 -4.978919
v 8.665088 0.039151 -6.995139
v 8.665088 0.097009 -6.936196
v 8.665088 0.097010 -5.036776
v 8.665088 0.039151 -6.995139
v 8.665088 2.410722 -6.936196
v 8.665088 0.097009 -6.936196
v 8.665088 2.468580 -6.995138
v 8.665088 2.468580 -6.995138
v 8.665088 2.468580 -4.978919
v 8.665088 2.410722 -6.936196
v 8.665088 2.410722 -5.036777
v 8.559976 1.249938 -7.073915
v 8.555779 1.032430 -7.072149
v 8.586844 1.037276 -7.050035
v 8.578051 1.226786 -7.029008
v 8.541219 1.041391 -7.035021
v 8.535193 1.252429 -7.046168
v 8.555779 1.032430 -7.072149
v 8.559976 1.249938 -7.073915
v 8.558477 1.259660 -7.044169
v 8.640757 1.199641 -7.036918
v 8.559077 1.201298 -7.046097
v 8.639326 1.230762 -7.082657
v 8.559077 1.201298 -7.046097
v 8.640757 1.199641 -7.036918
vn -0.0120 -0.9731 0.2302
vn 0.4058 0.8686 0.2845
vn -0.0000 1.0000 -0.0000
vn -0.0000 -0.0000 1.0000
vn -0.0000 -1.0000 -0.0000
vn -0.0000 -0.0000 -1.0000
vn 1.0000 -0.0000 -0.0000
vn -0.7071 -0.0000 0.7071
vn -0.7071 0.7071 -0.0000
vn -0.7071 -0.0000 -0.7071
vn -0.7071 -0.7071 -0.0000
vn -0.6204 -0.0000 -0.7843
vn -0.8117 -0.0000 0.5841
vn -0.7070 0.7072 -0.0000
vn -0.7071 -0.0000 -0.7072
vn -1.0000 -0.0000 -0.0000
vn 0.9961 -0.0884 0.0071
vn 0.5817 -0.0178 -0.8132
vn 0.9053 0.0673 -0.4195
vn 0.6672 0.1125 0.7364
vn -0.7781 -0.1255 0.6154
vn -0.9995 0.0286 -0.0097
vn -0.9173 -0.0391 -0.3962
vn -0.7454 0.0090 -0.6665
vn -0.1123 -0.0340 0.9931
vn 0.3291 0.5444 0.7716
vn -0.6397 0.7540 0.1493
vn 0.6769 0.2447 -0.6942
vn -0.3050 -0.2935 -0.9060
vn 0.0465 -0.8252 -0.5629
vt 0.054779 0.007812
vt 0.061432 0.003418
vt 0.052490 0.000000
vt 0.042358 0.003418
vt 0.036011 0.000000
vt 0.033539 0.009766
vt 0.029221 0.000488
vt 0.008072 0.000488
vt 0.029068 0.803833
vt 0.007927 0.803833
vt 0.365234 0.000488
vt 0.344238 0.000488
vt 0.348633 0.493652
vt 0.369629 0.493164
vt 0.086609 0.000488
vt 0.065491 0.000488
vt 0.065552 0.803833
vt 0.086670 0.803833
vt 0.440430 0.959991
vt 0.461670 0.959991
vt 0.461426 0.467285
vt 0.440430 0.467285
vt 0.331055 0.008301
vt 0.335205 0.485840
vt 0.000000 0.790649
vt 0.000146 0.013672
vt 0.057587 0.013672
vt 0.057617 0.790649
vt 0.985840 0.485352
vt 0.999023 0.493164
vt 0.999512 0.000488
vt 0.986328 0.008301
vt 0.807617 0.475098
vt 0.791504 0.475098
vt 0.807617 0.852051
vt 0.791504 0.852173
vt 0.694824 0.462891
vt 0.678711 0.462891
vt 0.678711 0.940125
vt 0.694824 0.940125
vt 0.397217 0.488770
vt 0.381348 0.488770
vt 0.381348 0.865723
vt 0.397217 0.865723
vt 0.770020 0.000488
vt 0.753906 0.000488
vt 0.754395 0.477539
vt 0.770020 0.477539
vt 0.664062 0.925598
vt 0.664062 0.477539
vt 0.776855 0.489746
vt 0.776855 0.837524
vt 0.366699 0.503174
vt 0.366943 0.851196
vt 0.739746 0.014648
vt 0.739746 0.462891
vt 0.332275 0.475098
vt 0.316406 0.475098
vt 0.332520 0.875183
vt 0.316650 0.875183
vt 0.845703 0.000488
vt 0.830078 0.000488
vt 0.830078 0.477539
vt 0.845703 0.477539
vt 0.858887 0.866699
vt 0.875000 0.866699
vt 0.874512 0.466797
vt 0.858887 0.466797
vt 0.905762 0.000488
vt 0.890137 0.000488
vt 0.890137 0.477539
vt 0.905762 0.477539
vt 0.815430 0.462891
vt 0.815430 0.014648
vt 0.302002 0.860596
vt 0.302002 0.489746
vt 0.889160 0.852173
vt 0.889160 0.480957
vt 0.875488 0.014648
vt 0.875488 0.462891
vt 0.425781 0.475098
vt 0.430420 0.955231
vt 0.430176 0.471680
vt 0.425781 0.952057
vt 0.095886 0.013672
vt 0.091370 0.010254
vt 0.095947 0.790649
vt 0.091431 0.793823
vt 0.384277 0.485352
vt 0.379883 0.008301
vt 0.379639 0.488281
vt 0.375488 0.004883
vt 0.038300 0.790649
vt 0.038452 0.013672
vt 0.033813 0.793823
vt 0.033966 0.010254
vt 0.786133 0.462891
vt 0.781250 0.011719
vt 0.781250 0.466309
vt 0.785645 0.014648
vt 0.349609 0.500000
vt 0.349609 0.854370
vt 0.354004 0.503174
vt 0.354248 0.851196
vt 0.651367 0.925598
vt 0.646973 0.474609
vt 0.646973 0.928772
vt 0.651367 0.477539
vt 0.764160 0.837524
vt 0.759766 0.486816
vt 0.759766 0.840698
vt 0.764160 0.489746
vt 0.862793 0.462891
vt 0.858398 0.011719
vt 0.858398 0.466309
vt 0.862793 0.014648
vt 0.906738 0.855347
vt 0.906250 0.478027
vt 0.901855 0.852173
vt 0.901855 0.480957
vt 0.802734 0.462891
vt 0.798340 0.011719
vt 0.798340 0.466309
vt 0.802734 0.014648
vt 0.289307 0.860596
vt 0.284912 0.486328
vt 0.284912 0.863770
vt 0.289307 0.489746
vt 0.113892 0.790649
vt 0.113831 0.013672
vt 0.402100 0.485352
vt 0.397949 0.007812
vt 0.056274 0.790649
vt 0.056427 0.013672
vt 0.407715 0.475098
vt 0.407959 0.952057
vt 0.727051 0.462891
vt 0.727051 0.014648
vt 0.635742 0.940125
vt 0.635742 0.462891
vt 0.338379 0.865723
vt 0.338135 0.488770
vt 0.748535 0.852173
vt 0.748535 0.475098
vt 0.787109 0.477539
vt 0.786621 0.000488
vt 0.917969 0.866699
vt 0.917969 0.466797
vt 0.846680 0.477539
vt 0.846680 0.000488
vt 0.273438 0.475098
vt 0.273438 0.875183
vt 0.505371 0.593994
vt 0.513184 0.594971
vt 0.512207 0.548096
vt 0.502930 0.552979
vt 0.496094 0.593018
vt 0.493896 0.547607
vt 0.487549 0.594971
vt 0.486328 0.548096
vt 0.746582 0.471680
vt 0.729004 0.473145
vt 0.747070 0.482422
vt 0.729004 0.485840
vt 0.747070 0.494629
vt 0.729004 0.497070
s 1
f 3/1/1 2/2/1 1/3/1
f 6/4/2 5/5/2 4/6/2
f 9/7/3 8/8/3 7/9/3
f 10/10/3 7/9/3 8/8/3
f 13/11/4 12/12/4 11/13/4
f 11/13/4 14/14/4 13/11/4
f 17/15/5 16/16/5 15/17/5
f 15/17/5 18/18/5 17/15/5
f 21/19/6 20/20/6 19/21/6
f 19/21/6 22/22/6 21/19/6
f 25/12/7 24/23/7 23/13/7
f 26/24/7 23/13/7 24/23/7
f 29/25/7 28/10/7 27/8/7
f 30/26/7 29/25/7 27/8/7
f 33/27/7 32/17/7 31/16/7
f 34/28/7 32/17/7 33/27/7
f 37/29/7 36/30/7 35/31/7
f 38/32/7 37/29/7 35/31/7
f 41/33/3 40/34/3 39/35/3
f 42/36/3 39/35/3 40/34/3
f 45/37/4 44/38/4 43/39/4
f 43/39/4 46/40/4 45/37/4
f 49/41/5 48/42/5 47/43/5
f 47/43/5 50/44/5 49/41/5
f 53/45/6 52/46/6 51/47/6
f 51/47/6 54/48/6 53/45/6
f 57/49/7 56/39/7 55/38/7
f 58/50/7 57/49/7 55/38/7
f 61/34/7 60/51/7 59/36/7
f 62/52/7 59/36/7 60/51/7
f 65/53/7 64/54/7 63/42/7
f 66/43/7 63/42/7 64/54/7
f 69/46/7 68/55/7 67/47/7
f 70/56/7 67/47/7 68/55/7
f 73/57/3 72/58/3 71/59/3
f 74/60/3 71/59/3 72/58/3
f 77/61/4 76/62/4 75/63/4
f 75/63/4 78/64/4 77/61/4
f 81/65/5 80/66/5 79/67/5
f 79/67/5 82/68/5 81/65/5
f 85/69/6 84/70/6 83/71/6
f 83/71/6 86/72/6 85/69/6
f 89/73/7 88/63/7 87/62/7
f 90/74/7 89/73/7 87/62/7
f 93/75/7 92/60/7 91/58/7
f 94/76/7 93/75/7 91/58/7
f 97/77/7 96/67/7 95/66/7
f 98/78/7 96/67/7 97/77/7
f 101/70/7 100/79/7 99/71/7
f 102/80/7 99/71/7 100/79/7
f 105/81/8 104/82/8 103/83/8
f 106/84/8 104/82/8 105/81/8
f 109/85/9 108/86/9 107/87/9
f 107/87/9 108/86/9 110/88/9
f 113/89/10 112/90/10 111/91/10
f 114/92/10 111/91/10 112/90/10
f 117/93/11 116/94/11 115/95/11
f 118/96/11 115/95/11 116/94/11
f 121/97/8 120/98/8 119/99/8
f 122/100/8 120/98/8 121/97/8
f 125/101/9 124/102/9 123/103/9
f 126/104/9 123/103/9 124/102/9
f 129/105/12 128/106/12 127/107/12
f 130/108/12 128/106/12 129/105/12
f 133/109/11 132/110/11 131/111/11
f 134/112/11 132/110/11 133/109/11
f 137/113/13 136/114/13 135/115/13
f 138/116/13 136/114/13 137/113/13
f 141/117/14 140/118/9 139/119/14
f 142/120/9 139/119/14 140/118/9
f 145/121/15 144/122/10 143/123/15
f 146/124/10 144/122/10 145/121/15
f 149/125/11 148/126/11 147/127/11
f 150/128/11 148/126/11 149/125/11
f 153/87/3 152/129/3 151/85/3
f 154/130/3 151/85/3 152/129/3
f 157/89/6 156/131/6 155/132/6
f 155/132/6 158/90/6 157/89/6
f 161/93/5 160/133/5 159/134/5
f 159/134/5 162/94/5 161/93/5
f 165/81/4 164/135/4 163/136/4
f 163/136/4 166/84/4 165/81/4
f 169/91/16 168/92/16 167/14/16
f 170/11/16 167/14/16 168/92/16
f 173/86/16 172/15/16 171/18/16
f 174/88/16 173/86/16 171/18/16
f 177/83/16 176/19/16 175/22/16
f 178/82/16 176/19/16 177/83/16
f 181/95/16 180/7/16 179/9/16
f 182/96/16 180/7/16 181/95/16
f 185/104/3 184/54/3 183/103/3
f 186/53/3 183/103/3 184/54/3
f 189/105/6 188/49/6 187/50/6
f 187/50/6 190/108/6 189/105/6
f 193/109/5 192/52/5 191/51/5
f 191/51/5 194/112/5 193/109/5
f 197/137/4 196/56/4 195/55/4
f 195/55/4 198/138/4 197/137/4
f 201/107/16 200/106/16 199/139/16
f 202/140/16 199/139/16 200/106/16
f 205/141/16 204/102/16 203/142/16
f 206/101/16 203/142/16 204/102/16
f 209/99/16 208/98/16 207/48/16
f 210/45/16 207/48/16 208/98/16
f 213/111/16 212/110/16 211/143/16
f 214/144/16 211/143/16 212/110/16
f 217/120/3 216/78/3 215/119/3
f 218/77/3 215/119/3 216/78/3
f 221/121/6 220/73/6 219/74/6
f 219/74/6 222/124/6 221/121/6
f 225/125/5 224/75/5 223/76/5
f 223/76/5 226/128/5 225/125/5
f 229/113/4 228/80/4 227/79/4
f 227/79/4 230/116/4 229/113/4
f 233/145/16 232/123/16 231/146/16
f 234/122/16 231/146/16 232/123/16
f 237/117/16 236/147/16 235/148/16
f 238/118/16 237/117/16 235/148/16
f 241/115/16 240/114/16 239/149/16
f 242/150/16 239/149/16 240/114/16
f 245/127/16 244/151/16 243/152/16
f 246/126/16 244/151/16 245/127/16
f 249/153/17 248/154/18 247/155/19
f 250/156/20 249/153/17 247/155/19
f 249/153/17 250/156/20 251/157/21
f 250/156/20 252/158/22 251/157/21
f 251/157/21 252/158/22 253/159/23
f 254/160/24 253/159/23 252/158/22
f 257/161/25 256/162/26 255/163/27
f 256/162/26 258/164/28 255/163/27
f 255/163/27 258/164/28 259/165/29
f 260/166/30 259/165/29 258/164/28
