# Blender 4.0.2
# www.blender.org
mtllib SM_DoorWindows_LOD3.mtl
o SM_DoorWindows_LOD3
v 8.777962 0.009698 -4.966040
v 8.745817 2.508945 -4.911650
v 8.754116 2.436779 -5.003138
v 8.745817 2.508945 -4.911650
v 8.780489 2.494142 -8.952636
v 8.754116 2.436779 -5.003138
v 8.745818 -0.001214 -9.003176
v 8.777962 0.009698 -4.966040
v 8.745818 0.039151 -8.935901
v 8.780489 2.494142 -8.952636
v 8.745818 -0.001214 -9.003176
v 8.745818 0.039151 -8.935901
v 8.662507 2.552035 -6.948818
v 8.570009 2.448061 -8.923100
v 8.755646 2.435192 -8.895330
v 8.699627 -0.000565 -6.953013
v 8.727546 0.039151 -8.935901
v 8.646816 0.039151 -8.935901
v 8.755646 2.435192 -8.895330
v 8.698997 2.351893 -7.152783
v 8.662507 2.552035 -6.948818
v 8.755646 2.435192 -8.895330
v 8.727546 0.039151 -8.935901
v 8.690564 0.132728 -8.835279
v 8.706277 2.493701 -7.020506
v 8.754116 2.436779 -5.003138
v 8.623469 2.446558 -5.023654
v 8.706277 2.493701 -7.020506
v 8.600847 0.036902 -6.956527
v 8.775057 0.079273 -6.966003
v 8.777962 0.009698 -4.966040
v 8.754116 2.436779 -5.003138
v 8.705407 0.135196 -5.075274
v 8.754116 2.436779 -5.003138
v 8.706277 2.493701 -7.020506
v 8.704897 2.359407 -6.879523
v 8.775057 0.079273 -6.966003
v 8.777962 0.009698 -4.966040
v 8.705407 0.135196 -5.075274
v 8.775057 0.079273 -6.966003
v 8.704897 2.359407 -6.879523
v 8.706277 2.493701 -7.020506
v 8.587951 0.019380 -4.875727
v 8.638179 -0.001214 -9.003176
v 8.641647 0.038074 -8.936668
v 8.638179 2.508943 -9.003176
v 8.609616 2.480068 -4.965860
v 8.642366 2.469149 -8.940038
v 8.690564 0.132728 -8.835279
v 8.727546 0.113153 -7.119423
v 8.648090 0.108703 -7.117825
v 8.698997 2.351893 -7.152783
v 8.648090 0.108703 -7.117825
v 8.727546 0.113153 -7.119423
v 8.698997 2.351893 -7.152783
v 8.755646 2.435192 -8.895330
v 8.570009 2.448061 -8.923100
v 8.690564 0.132728 -8.835279
v 8.570009 2.448061 -8.923100
v 8.755646 2.435192 -8.895330
v 8.646816 0.039151 -8.935901
v 8.570009 2.448061 -8.923100
v 8.690564 0.132728 -8.835279
v 8.698997 2.351893 -7.152783
v 8.570009 2.448061 -8.923100
v 8.662507 2.552035 -6.948818
v 8.705407 0.135196 -5.075274
v 8.600847 0.036902 -6.956527
v 8.775057 0.079273 -6.966003
v 8.705407 0.135196 -5.075274
v 8.754116 2.436779 -5.003138
v 8.623469 2.446558 -5.023654
v 8.704897 2.359407 -6.879523
v 8.623469 2.446558 -5.023654
v 8.754116 2.436779 -5.003138
v 8.704897 2.359407 -6.879523
v 8.775057 0.079273 -6.966003
v 8.600847 0.036902 -6.956527
v 8.623469 2.446558 -5.023654
v 8.665088 0.039153 -4.978919
v 8.705407 0.135196 -5.075274
v 8.665088 0.039153 -4.978919
v 8.600847 0.036902 -6.956527
v 8.705407 0.135196 -5.075274
v 8.704897 2.359407 -6.879523
v 8.600847 0.036902 -6.956527
v 8.706277 2.493701 -7.020506
v 8.706277 2.493701 -7.020506
v 8.623469 2.446558 -5.023654
v 8.704897 2.359407 -6.879523
v 8.638179 2.508943 -9.003176
v 8.745817 2.508945 -4.911650
v 8.609616 2.480068 -4.965860
v 8.780489 2.494142 -8.952636
v 8.745817 2.508945 -4.911650
v 8.777962 0.009698 -4.966040
v 8.587951 0.019380 -4.875727
v 8.609616 2.480068 -4.965860
v 8.777962 0.009698 -4.966040
v 8.745818 -0.001214 -9.003176
v 8.638179 -0.001214 -9.003176
v 8.587951 0.019380 -4.875727
v 8.745818 -0.001214 -9.003176
v 8.780489 2.494142 -8.952636
v 8.638179 2.508943 -9.003176
v 8.638179 -0.001214 -9.003176
v 8.727546 0.039151 -8.935901
v 8.755646 2.435192 -8.895330
v 8.570009 2.448061 -8.923100
v 8.646816 0.039151 -8.935901
v 8.699627 -0.000565 -6.953013
v 8.662507 2.552035 -6.948818
v 8.698997 2.351893 -7.152783
v 8.727546 0.113153 -7.119423
v 8.727546 0.039151 -8.935901
v 8.727546 0.113153 -7.119423
v 8.690564 0.132728 -8.835279
v 8.699627 -0.000565 -6.953013
v 8.754116 2.436779 -5.003138
v 8.777962 0.009698 -4.966040
v 8.665088 0.039153 -4.978919
v 8.623469 2.446558 -5.023654
v 8.777962 0.009698 -4.966040
v 8.775057 0.079273 -6.966003
v 8.600847 0.036902 -6.956527
v 8.665088 0.039153 -4.978919
v 8.641647 0.038074 -8.936668
v 8.777962 0.009698 -4.966040
v 8.587951 0.019380 -4.875727
v 8.745818 0.039151 -8.935901
v 8.777962 0.009698 -4.966040
v 8.754116 2.436779 -5.003138
v 8.609616 2.480068 -4.965860
v 8.587951 0.019380 -4.875727
v 8.754116 2.436779 -5.003138
v 8.780489 2.494142 -8.952636
v 8.642366 2.469149 -8.940038
v 8.609616 2.480068 -4.965860
v 8.780489 2.494142 -8.952636
v 8.745818 0.039151 -8.935901
v 8.641647 0.038074 -8.936668
v 8.642366 2.469149 -8.940038
v 8.638179 -0.001214 -9.003176
v 8.638179 2.508943 -9.003176
v 8.641647 0.038074 -8.936668
v 8.642366 2.469149 -8.940038
v 8.662507 2.552035 -6.948818
v 8.648090 0.108703 -7.117825
v 8.698997 2.351893 -7.152783
v 8.699627 -0.000565 -6.953013
v 8.646816 0.039151 -8.935901
v 8.648090 0.108703 -7.117825
v 8.699627 -0.000565 -6.953013
v 8.690564 0.132728 -8.835279
vn 0.9966 0.0110 0.0817
vn 0.9945 0.1040 0.0082
vn 0.9999 0.0134 -0.0080
vn 0.9999 -0.0141 0.0084
vn 0.0774 0.9954 -0.0561
vn -0.0000 -0.9998 -0.0200
vn 0.9893 0.1407 0.0389
vn 0.9332 -0.0170 0.3588
vn 0.0705 0.9972 0.0265
vn -0.0485 -0.0239 -0.9985
vn 0.8328 -0.0003 -0.5535
vn 0.9990 -0.0362 -0.0247
vn 0.8593 0.5112 0.0165
vn 0.9989 0.0293 0.0377
vn -0.9939 0.1092 -0.0126
vn -0.9931 -0.1170 -0.0079
vn -0.0557 0.9984 0.0126
vn -0.0193 -0.0151 -0.9997
vn -0.0617 -0.9969 -0.0497
vn -0.1459 0.0299 0.9889
vn -0.9057 -0.0311 0.4227
vn -0.9701 -0.2358 0.0579
vn -0.2381 0.9705 -0.0375
vn 0.1571 0.0276 -0.9872
vn -0.0813 -0.9958 0.0432
vn 0.0630 -0.0359 0.9974
vn -0.9137 -0.0233 -0.4056
vn -0.9109 0.4116 0.0291
vn -0.9985 0.0437 0.0318
vn -0.9985 -0.0340 -0.0422
vn -0.2095 0.9778 0.0055
vn -0.2007 0.9796 0.0053
vn 0.0959 0.9954 -0.0025
vn 0.1044 0.9945 -0.0027
vn 0.4039 -0.0124 0.9147
vn 0.4287 -0.0141 0.9034
vn -0.3343 0.0348 0.9418
vn -0.3763 0.0372 0.9257
vn -0.0014 -1.0000 0.0028
vn -0.0000 -1.0000 0.0027
vn -0.0482 -0.9988 0.0044
vn -0.0488 -0.9988 0.0044
vn 0.3267 0.0140 -0.9450
vn 0.3360 0.0144 -0.9418
vn 0.0128 0.0005 -0.9999
vn -0.0000 -0.0000 -1.0000
vn 0.1456 0.0148 -0.9892
vn 0.1490 0.0150 -0.9887
vn 0.0073 0.0058 -1.0000
vn -0.0000 0.0053 -1.0000
vn 0.9865 0.0141 0.1631
vn 0.9866 0.0141 0.1627
vn 0.9846 0.0151 0.1744
vn 0.9844 0.0152 0.1755
vn 0.9241 0.3819 -0.0156
vn 0.9770 -0.2131 0.0087
vn 0.9404 0.3397 -0.0138
vn 0.9742 -0.2257 0.0092
vn -0.1110 0.0142 0.9937
vn -0.1097 0.0141 0.9939
vn -0.1527 0.0157 0.9881
vn -0.1540 0.0157 0.9880
vn 0.2176 -0.9755 -0.0327
vn 0.2344 -0.9715 -0.0341
vn -0.2251 -0.9743 0.0067
vn -0.2535 -0.9673 0.0093
vn 0.0534 0.9986 0.0053
vn 0.0526 0.9986 0.0053
vn -0.0085 0.9999 0.0074
vn -0.0104 0.9999 0.0075
vn -0.2663 -0.0181 -0.9637
vn -0.2546 -0.0173 -0.9669
vn -0.4237 -0.0288 -0.9054
vn -0.4303 -0.0293 -0.9022
vn 0.1667 -0.9859 -0.0128
vn 0.1769 -0.9841 -0.0131
vn -0.2784 -0.9605 -0.0000
vn -0.2869 -0.9580 0.0003
vn -0.0039 0.0067 1.0000
vn -0.0074 0.0069 0.9999
vn 0.0876 0.0015 0.9962
vn 0.0906 0.0014 0.9959
vn -0.9986 -0.0000 0.0523
vn -0.9978 0.0004 0.0660
vn -0.9986 -0.0000 0.0521
vn -0.9978 0.0004 0.0664
vn -0.9807 0.0192 -0.1943
vn -0.9623 -0.0131 0.2716
vn -0.9880 0.0164 -0.1535
vn -0.9570 -0.0144 0.2897
vn -0.9135 -0.4064 0.0162
vn -0.9206 -0.3902 0.0156
vn -0.9239 0.3824 -0.0140
vn -0.8990 0.4376 -0.0161
vt 0.330566 0.479492
vt 0.348633 0.493652
vt 0.333252 0.002930
vt -0.006100 0.018066
vt 0.004623 0.793945
vt 0.008072 0.000488
vt 0.057587 0.013672
vt 0.063416 0.793213
vt 0.065491 0.000488
vt 0.985840 0.485352
vt 0.999023 0.493164
vt 0.989258 0.002930
vt 0.786133 0.844238
vt 0.821289 0.849731
vt 0.804688 0.465820
vt 0.397217 0.488770
vt 0.381348 0.488770
vt 0.386963 0.873901
vt 0.803711 0.474121
vt 0.768555 0.490723
vt 0.785156 0.842651
vt 0.734375 0.458984
vt 0.754395 0.477539
vt 0.746582 0.006836
vt 0.338135 0.483887
vt 0.314941 0.479980
vt 0.324463 0.880188
vt 0.884277 0.469727
vt 0.915527 0.478027
vt 0.897949 -0.004883
vt 0.811035 0.019043
vt 0.824707 0.471191
vt 0.834473 -0.004883
vt 0.298828 0.854370
vt 0.321533 0.879639
vt 0.310303 0.479980
vt 0.893555 0.485352
vt 0.867676 0.464355
vt 0.882324 0.862183
vt 0.894531 -0.004883
vt 0.872559 0.021484
vt 0.094360 0.013184
vt 0.086609 0.000488
vt 0.089783 0.810913
vt 0.036896 0.791504
vt 0.034058 0.010742
vt 0.029068 0.803833
vt 0.351318 0.851562
vt 0.366943 0.851196
vt 0.359619 0.508545
vt 0.664062 0.477539
vt 0.648438 0.476562
vt 0.658691 0.917236
vt 0.749023 0.849976
vt 0.782715 0.844238
vt 0.772461 0.496094
vt 0.744629 0.006836
vt 0.712402 0.003906
vt 0.732422 0.458984
vt 0.790039 0.458984
vt 0.770508 0.004395
vt 0.770020 0.477539
vt 0.735840 0.476562
vt 0.751953 0.848633
vt 0.772461 0.485352
vt 0.883789 0.862671
vt 0.912598 0.860962
vt 0.896973 0.485840
vt 0.795898 0.473145
vt 0.816895 0.471191
vt 0.807617 0.019043
vt 0.303467 0.479492
vt 0.282959 0.483887
vt 0.293701 0.854004
vt 0.849609 0.478027
vt 0.880371 0.469727
vt 0.868164 0.021484
vt 0.806152 0.019043
vt 0.786621 0.000488
vt 0.794434 0.473145
vt 0.898438 0.485352
vt 0.919434 0.859253
vt 0.917969 0.466797
vt 0.842285 -0.004883
vt 0.855469 0.478027
vt 0.865723 0.021484
vt 0.291504 0.853027
vt 0.278564 0.483887
vt 0.268799 0.880066
vt 0.034821 0.010742
vt 0.001118 0.793945
vt 0.373779 0.004395
vt 0.337891 0.002441
vt 0.375244 0.487793
vt 0.059235 0.793213
vt 0.096191 0.810913
vt 0.440430 0.959991
vt 0.468262 0.957062
vt 0.461426 0.467285
vt 0.440430 0.467285
vt 0.783203 0.004395
vt 0.748535 0.006836
vt 0.660645 0.917175
vt 0.682617 0.956329
vt 0.683594 0.455078
vt 0.363037 0.508545
vt 0.389160 0.868774
vt 0.845703 0.000488
vt 0.823730 -0.004883
vt 0.828613 0.471191
vt 0.851074 0.473145
vt 0.847656 0.859131
vt 0.880371 0.860962
vt 0.879395 0.463867
vt 0.858887 0.466797
vt 0.083984 0.810913
vt 0.120117 0.793213
vt 0.093384 0.013184
vt 0.113831 0.013672
vt 0.403809 0.479004
vt 0.403564 0.001953
vt 0.368652 0.004395
vt 0.035950 0.791504
vt 0.063049 0.793945
vt 0.058197 0.018066
vt 0.029846 0.010742
vt 0.428223 0.474609
vt 0.407715 0.475098
vt 0.401123 0.957092
vt 0.428223 0.952179
vt 0.427246 0.474609
vt 0.427979 0.952179
vt 0.651855 0.917236
vt 0.631348 0.956573
vt 0.631348 0.455078
vt 0.330811 0.867554
vt 0.352051 0.853271
vt 0.338135 0.488770
vt 0.356689 0.508545
s 1
f 3/1/1 2/2/1 1/3/1
f 6/4/2 5/5/2 4/6/2
f 9/7/3 8/8/3 7/9/3
f 12/10/4 11/11/4 10/12/4
f 15/13/5 14/14/5 13/15/5
f 18/16/6 17/17/6 16/18/6
f 21/19/7 20/20/7 19/21/7
f 24/22/8 23/23/8 22/24/8
f 27/25/9 26/26/9 25/27/9
f 30/28/10 29/29/10 28/30/10
f 33/31/11 32/32/11 31/33/11
f 36/34/12 35/35/12 34/36/12
f 39/37/13 38/38/13 37/39/13
f 42/40/14 41/41/14 40/28/14
f 45/42/15 44/43/15 43/44/15
f 48/45/16 47/46/16 46/47/16
f 51/48/17 50/49/17 49/50/17
f 54/51/18 53/52/18 52/53/18
f 57/54/19 56/55/19 55/56/19
f 60/57/20 59/58/20 58/59/20
f 63/60/21 62/61/21 61/62/21
f 66/63/22 65/64/22 64/65/22
f 69/66/23 68/67/23 67/68/23
f 72/69/24 71/70/24 70/71/24
f 75/72/25 74/73/25 73/74/25
f 78/75/26 77/76/26 76/77/26
f 81/78/27 80/79/27 79/80/27
f 84/81/28 83/82/28 82/83/28
f 87/84/29 86/85/29 85/86/29
f 90/87/30 89/88/30 88/89/30
f 93/90/31 92/6/32 91/47/33
f 94/91/34 91/47/33 92/6/32
f 97/92/35 96/93/36 95/2/37
f 95/2/37 98/94/38 97/92/35
f 101/43/39 100/9/40 99/95/41
f 99/95/41 102/96/42 101/43/39
f 105/97/43 104/98/44 103/99/45
f 103/99/45 106/100/46 105/97/43
f 109/101/47 108/102/48 107/23/49
f 107/23/49 110/62/50 109/101/47
f 113/103/51 112/104/52 111/105/53
f 114/51/54 113/103/51 111/105/53
f 117/106/55 116/49/56 115/17/57
f 118/107/58 115/17/57 116/49/56
f 121/108/59 120/109/60 119/110/61
f 119/110/61 122/111/62 121/108/59
f 125/112/63 124/113/64 123/114/65
f 123/114/65 126/115/66 125/112/63
f 129/116/67 128/117/68 127/118/69
f 130/119/70 127/118/69 128/117/68
f 133/94/71 132/120/72 131/121/73
f 131/121/73 134/122/74 133/94/71
f 137/123/75 136/124/76 135/125/77
f 135/125/77 138/126/78 137/123/75
f 141/127/79 140/128/80 139/129/81
f 139/129/81 142/130/82 141/127/79
f 145/131/83 144/97/84 143/100/85
f 146/132/86 144/97/84 145/131/83
f 149/133/87 148/52/88 147/134/89
f 150/135/90 147/134/89 148/52/88
f 153/136/91 152/137/92 151/138/93
f 154/139/94 151/138/93 152/137/92
