# Blender 4.0.2
# www.blender.org
mtllib SM_DoorWindows_LOD5.mtl
o SM_DoorWindows_LOD5
v 8.653176 2.580420 -4.922158
v 8.562744 2.476189 -9.022993
v 8.780489 2.494142 -8.952636
v 8.653176 2.580420 -4.922158
v 8.788260 0.135222 -4.965319
v 8.587951 0.019380 -4.875727
v 8.708068 -0.037547 -9.019012
v 8.587951 0.019380 -4.875727
v 8.788260 0.135222 -4.965319
v 8.708068 -0.037547 -9.019012
v 8.780489 2.494142 -8.952636
v 8.562744 2.476189 -9.022993
v 8.788260 0.135222 -4.965319
v 8.653176 2.580420 -4.922158
v 8.715031 2.340487 -5.015022
v 8.653176 2.580420 -4.922158
v 8.780489 2.494142 -8.952636
v 8.715031 2.340487 -5.015022
v 8.587951 0.019380 -4.875727
v 8.708068 -0.037547 -9.019012
v 8.641647 0.038074 -8.936668
v 8.708068 -0.037547 -9.019012
v 8.562744 2.476189 -9.022993
v 8.641647 0.038074 -8.936668
v 8.641647 0.038074 -8.936668
v 8.788260 0.135222 -4.965319
v 8.587951 0.019380 -4.875727
v 8.708068 -0.037547 -9.019012
v 8.788260 0.135222 -4.965319
v 8.715031 2.340487 -5.015022
v 8.653176 2.580420 -4.922158
v 8.587951 0.019380 -4.875727
v 8.715031 2.340487 -5.015022
v 8.780489 2.494142 -8.952636
v 8.562744 2.476189 -9.022993
v 8.653176 2.580420 -4.922158
v 8.780489 2.494142 -8.952636
v 8.708068 -0.037547 -9.019012
v 8.641647 0.038074 -8.936668
v 8.562744 2.476189 -9.022993
vn -0.0745 0.9969 -0.0237
vn 0.4053 0.0063 0.9142
vn 0.5093 -0.8602 0.0266
vn 0.3062 0.0162 -0.9518
vn 0.8761 0.0399 0.4804
vn 0.9704 0.2403 0.0255
vn -0.7583 -0.6518 -0.0130
vn -0.7982 -0.0471 -0.6006
vn -0.5015 0.8651 -0.0026
vn -0.4904 0.8715 -0.0032
vn 0.7093 0.7036 -0.0434
vn 0.7266 0.6857 -0.0436
vn -0.8151 -0.0348 -0.5783
vn -0.8761 -0.0399 -0.4804
vn -0.4177 -0.0070 -0.9086
vn -0.4053 -0.0063 -0.9142
vn 0.0453 -0.9983 -0.0355
vn 0.0941 -0.9949 -0.0373
vn -0.9575 -0.2870 0.0267
vn -0.9653 -0.2597 0.0279
vn 0.7339 -0.0371 0.6782
vn 0.7601 -0.0387 0.6487
vn -0.2832 0.0222 0.9588
vn -0.3091 0.0237 0.9507
vt 0.001118 0.793945
vt 0.043793 0.807739
vt 0.023666 0.002441
vt 0.373779 0.004395
vt 0.336426 0.027344
vt 0.363770 0.507080
vt 0.058319 0.793579
vt 0.096191 0.810913
vt 0.073242 -0.002930
vt 0.426025 0.953583
vt 0.468262 0.957062
vt 0.453857 0.459961
vt 0.333496 0.460938
vt 0.348145 0.507568
vt 0.332275 0.027344
vt -0.015808 0.020508
vt 0.004623 0.793945
vt 0.023834 0.001953
vt 0.094360 0.013184
vt 0.081055 -0.002930
vt 0.089783 0.810913
vt 0.427246 0.474609
vt 0.440918 0.953674
vt 0.442627 0.459961
vt 0.083984 0.810913
vt 0.116638 0.793335
vt 0.093384 0.013184
vt 0.106262 -0.002930
vt 0.379639 0.506836
vt 0.399658 0.459961
vt 0.403809 0.026855
vt 0.368652 0.004395
vt 0.021133 0.807739
vt 0.063049 0.793945
vt 0.056915 0.020508
vt 0.032288 0.002441
vt 0.428223 0.474609
vt 0.415283 0.459961
vt 0.401123 0.957092
vt 0.442139 0.953583
s 1
f 3/1/1 2/2/1 1/3/1
f 6/4/2 5/5/2 4/6/2
f 9/7/3 8/8/3 7/9/3
f 12/10/4 11/11/4 10/12/4
f 15/13/5 14/14/5 13/15/5
f 18/16/6 17/17/6 16/18/6
f 21/19/7 20/20/7 19/21/7
f 24/22/8 23/23/8 22/24/8
f 27/25/9 26/26/10 25/27/11
f 28/28/12 25/27/11 26/26/10
f 31/29/13 30/30/14 29/31/15
f 29/31/15 32/32/16 31/29/13
f 35/33/17 34/34/18 33/35/19
f 33/35/19 36/36/20 35/33/17
f 39/37/21 38/38/22 37/39/23
f 37/39/23 40/40/24 39/37/21
