# Blender 4.0.2
# www.blender.org
mtllib SM_RangeHood_ForCol.mtl
o SM_RangeHood
v 0.445481 0.025510 -0.563333
v -0.445481 0.025510 -0.563333
v -0.445481 0.025510 -0.055495
v 0.445481 0.025510 -0.055495
v -0.223613 0.296003 -0.452950
v 0.223613 0.296003 -0.452950
v 0.223613 0.296003 -0.165878
v -0.223613 0.296003 -0.165878
v -0.223613 0.296003 -0.165878
v -0.228761 0.296003 -0.171022
v -0.228761 0.296003 -0.447806
v -0.223613 0.296003 -0.452950
v 0.488027 0.005101 -0.000000
v -0.488027 0.005101 -0.000000
v -0.488145 0.061326 -0.000000
v 0.488145 0.061326 -0.000000
v -0.484006 0.068258 -0.002050
v 0.484096 0.068226 -0.002030
v 0.223613 0.296003 -0.165878
v -0.223613 0.296003 -0.165878
v 0.223613 0.296003 -0.165878
v 0.228761 0.296003 -0.171022
v 0.228761 0.296003 -0.447806
v 0.223613 0.296003 -0.452950
v 0.445481 0.005101 -0.055495
v 0.445481 0.025510 -0.563333
v 0.445481 0.025510 -0.055495
v 0.445481 0.005101 -0.563333
v 0.450583 -0.000000 -0.050394
v 0.450583 -0.000000 -0.568434
v 0.469779 -0.000000 -0.596756
v 0.469779 -0.000000 -0.022072
v 0.488027 -0.000000 -0.005102
v 0.488027 -0.000000 -0.613726
v 0.488027 0.005101 -0.000000
v 0.493129 0.005101 -0.005102
v 0.493129 0.005101 -0.613726
v 0.488027 0.005101 -0.618828
v -0.488027 0.005101 -0.000000
v 0.488027 0.005101 -0.000000
v -0.488027 -0.000000 -0.005102
v 0.488027 -0.000000 -0.005102
v 0.469779 -0.000000 -0.022072
v -0.469779 -0.000000 -0.022072
v 0.450583 -0.000000 -0.050394
v -0.450583 -0.000000 -0.050394
v -0.445481 0.005101 -0.055495
v 0.445481 0.005101 -0.055495
v 0.445481 0.025510 -0.055495
v -0.445481 0.025510 -0.055495
v -0.488027 0.005101 -0.618828
v 0.488027 -0.000000 -0.613726
v 0.488027 0.005101 -0.618828
v -0.488027 -0.000000 -0.613726
v -0.469779 -0.000000 -0.596756
v 0.469779 -0.000000 -0.596756
v -0.450583 -0.000000 -0.568434
v 0.450583 -0.000000 -0.568434
v 0.445481 0.005101 -0.563333
v -0.445481 0.005101 -0.563333
v -0.445481 0.025510 -0.563333
v 0.445481 0.025510 -0.563333
v -0.223613 0.296003 -0.452950
v 0.484006 0.068258 -0.616778
v 0.223613 0.296003 -0.452950
v -0.484096 0.068226 -0.616798
v -0.488145 0.061326 -0.618828
v 0.488145 0.061326 -0.618828
v 0.488027 0.005101 -0.618828
v -0.488027 0.005101 -0.618828
v -0.445481 0.025510 -0.055495
v -0.445481 0.025510 -0.563333
v -0.445481 0.005101 -0.563333
v -0.445481 0.005101 -0.055495
v -0.450583 -0.000000 -0.050394
v -0.450583 -0.000000 -0.568434
v -0.469779 -0.000000 -0.596756
v -0.469779 -0.000000 -0.022072
v -0.488027 -0.000000 -0.005102
v -0.488027 -0.000000 -0.613726
v -0.493129 0.005101 -0.005102
v -0.488027 0.005101 -0.000000
v -0.493129 0.005101 -0.613726
v -0.488027 0.005101 -0.618828
v 0.018144 0.026219 -0.040460
v 0.018144 0.026219 -0.578683
v 0.018144 0.008739 -0.578683
v 0.018144 0.008739 -0.040460
v 0.014588 0.004514 -0.040460
v 0.014588 0.004514 -0.578683
v -0.014588 0.004514 -0.578683
v -0.014588 0.004514 -0.040460
v -0.018144 0.008739 -0.040460
v -0.018144 0.008739 -0.578683
v -0.018144 0.026219 -0.578683
v -0.018144 0.026219 -0.040460
v -0.228761 0.296003 -0.447806
v -0.484096 0.068226 -0.616798
v -0.223613 0.296003 -0.452950
v -0.490308 0.067812 -0.612198
v -0.488145 0.061326 -0.618828
v -0.228761 0.296003 -0.171022
v -0.484006 0.068258 -0.002050
v -0.223613 0.296003 -0.165878
v -0.490347 0.067773 -0.006538
v -0.488145 0.061326 -0.000000
v -0.493129 0.061189 -0.004970
v -0.488027 0.005101 -0.000000
v -0.493129 0.005101 -0.005102
v -0.493129 0.061188 -0.613857
v -0.493129 0.005101 -0.613726
v -0.488027 0.005101 -0.618828
v 0.228761 0.296003 -0.171022
v 0.484096 0.068226 -0.002030
v 0.223613 0.296003 -0.165878
v 0.490308 0.067812 -0.006630
v 0.488145 0.061326 -0.000000
v 0.228761 0.296003 -0.447806
v 0.223613 0.296003 -0.452950
v 0.484006 0.068258 -0.616778
v 0.490347 0.067773 -0.612290
v 0.488145 0.061326 -0.618828
v 0.493129 0.061189 -0.004970
v 0.488027 0.005101 -0.000000
v 0.493129 0.005101 -0.005102
v 0.493129 0.061188 -0.613857
v 0.488027 0.005101 -0.618828
v 0.493129 0.005101 -0.613726
vn -0.0000 -1.0000 -0.0000
vn -0.0079 0.0236 0.9997
vn -0.0079 -0.0785 0.9969
vn 0.0078 -0.0785 0.9969
vn 0.0079 0.0236 0.9997
vn 0.0079 -0.0785 0.9969
vn -0.0157 0.5744 0.8184
vn 0.0157 0.5745 0.8184
vn -0.0158 0.5745 0.8184
vn -0.0000 0.5837 0.8120
vn -0.0157 0.5745 0.8184
vn -0.0000 0.5836 0.8121
vn -0.0158 0.5744 0.8184
vn -1.0000 -0.0000 -0.0000
vn -0.9678 -0.2518 -0.0000
vn -0.0863 -0.9963 -0.0001
vn -0.0863 -0.9963 -0.0000
vn 0.1413 -0.9653 0.2197
vn 0.1412 -0.9653 -0.2197
vn 0.9969 -0.0785 0.0078
vn 0.1413 -0.9653 0.2198
vn 0.9969 -0.0785 -0.0079
vn 0.1413 -0.9653 -0.2197
vn 0.0078 -0.0785 -0.9969
vn 0.9969 -0.0785 -0.0078
vn -0.1412 -0.9653 0.2197
vn -0.0078 -0.0785 0.9969
vn 0.1412 -0.9653 0.2197
vn -0.1413 -0.9653 0.2197
vn -0.0000 -0.9975 -0.0707
vn -0.0000 -0.2518 -0.9678
vn -0.0000 -0.0000 -1.0000
vn -0.0079 -0.0785 -0.9969
vn -0.1413 -0.9653 -0.2197
vn -0.0078 -0.0785 -0.9969
vn -0.0000 -0.9975 0.0707
vn -0.0000 -0.2518 0.9678
vn -0.0000 -0.0000 1.0000
vn -0.0000 0.5835 -0.8121
vn 0.0158 0.5744 -0.8184
vn -0.0157 0.5745 -0.8184
vn -0.0000 0.5840 -0.8118
vn 0.0158 0.5745 -0.8184
vn -0.0079 0.0236 -0.9997
vn 0.0079 0.0236 -0.9997
vn 0.0157 0.5744 -0.8184
vn 0.0079 -0.0785 -0.9969
vn 0.9678 -0.2518 -0.0000
vn 1.0000 -0.0000 -0.0000
vn 0.0863 -0.9963 -0.0001
vn 0.0863 -0.9963 -0.0000
vn -0.1412 -0.9653 -0.2197
vn -0.9969 -0.0785 0.0078
vn -0.9969 -0.0785 0.0079
vn -0.1413 -0.9653 -0.2198
vn -0.9969 -0.0785 -0.0078
vn 0.9862 -0.1657 -0.0000
vn 0.1260 -0.9920 -0.0000
vn -0.1260 -0.9920 -0.0000
vn -0.9862 -0.1657 -0.0000
vn -0.6540 0.7565 -0.0079
vn -0.6707 0.7417 -0.0079
vn -0.0158 0.5744 -0.8184
vn -0.0078 0.0236 -0.9997
vn -0.6540 0.7564 -0.0079
vn -0.6540 0.7564 0.0079
vn -0.0000 0.5835 0.8121
vn -0.6540 0.7565 0.0079
vn -0.6707 0.7417 0.0079
vn -0.9992 0.0393 0.0079
vn -0.9992 0.0394 0.0079
vn -0.9992 0.0394 0.0078
vn -0.9992 0.0394 -0.0078
vn -0.9992 0.0393 -0.0079
vn -0.6706 0.7417 -0.0079
vn -0.9992 0.0394 -0.0079
vn 0.6540 0.7564 0.0079
vn 0.6707 0.7417 0.0079
vn 0.0158 0.5744 0.8184
vn 0.0078 0.0236 0.9997
vn 0.6540 0.7564 -0.0079
vn 0.0157 0.5745 -0.8184
vn 0.6540 0.7565 -0.0079
vn 0.6707 0.7417 -0.0079
vn 0.9992 0.0394 0.0078
vn 0.6706 0.7417 0.0079
vn 0.9992 0.0394 0.0079
vn 0.9992 0.0394 -0.0079
vn 0.9992 0.0393 -0.0079
vn 0.9992 0.0393 0.0079
vn 0.9969 -0.0785 0.0079
vt 0.145996 0.596191
vt 0.145874 0.866821
vt 0.620117 0.866821
vt 0.620605 0.596436
vt 0.342285 0.020020
vt 0.342285 0.000488
vt 0.000040 0.000488
vt 0.000000 0.020020
vt 0.340820 0.022461
vt 0.001420 0.022461
vt 0.092773 0.121094
vt 0.249512 0.121094
vt 0.025940 0.392578
vt 0.025864 0.573730
vt 0.030258 0.386719
vt 0.030594 0.579102
vt 0.032593 0.384277
vt 0.032990 0.581543
vt 0.040070 0.591797
vt 0.039642 0.374023
vt 0.046356 0.367676
vt 0.046844 0.597900
vt 0.048981 0.367676
vt 0.047638 0.365723
vt 0.049469 0.597900
vt 0.048187 0.600342
vt 0.104858 0.950348
vt 0.102234 0.593018
vt 0.102234 0.950623
vt 0.104858 0.593018
vt 0.111023 0.599609
vt 0.111023 0.943665
vt 0.121399 0.606689
vt 0.121338 0.936707
vt 0.123779 0.934326
vt 0.123840 0.608887
vt 0.129395 0.613281
vt 0.128906 0.929688
vt 0.093689 0.593994
vt 0.091064 0.593994
vt 0.093689 0.952698
vt 0.091064 0.952667
vt 0.084900 0.945862
vt 0.084900 0.600830
vt 0.074585 0.938751
vt 0.074585 0.607666
vt 0.072144 0.610107
vt 0.072144 0.936401
vt 0.066650 0.932007
vt 0.067017 0.614990
vt 0.595215 0.121094
vt 0.686523 0.022461
vt 0.438477 0.121094
vt 0.347168 0.022461
vt 0.345703 0.020020
vt 0.687988 0.020020
vt 0.687988 0.000488
vt 0.345947 0.000488
vt 0.039581 0.351562
vt 0.043945 0.345703
vt 0.044830 0.164551
vt 0.040131 0.159180
vt 0.037720 0.156738
vt 0.037201 0.354004
vt 0.030060 0.364258
vt 0.030762 0.146484
vt 0.024063 0.140137
vt 0.023239 0.370605
vt 0.023788 0.137695
vt 0.021469 0.140137
vt 0.020630 0.370117
vt 0.021912 0.372559
vt 0.044464 0.801025
vt 0.050598 0.801025
vt 0.050568 0.612305
vt 0.044434 0.612305
vt 0.042511 0.612305
vt 0.042542 0.801025
vt 0.032318 0.801025
vt 0.032288 0.612305
vt 0.030350 0.612305
vt 0.030380 0.801025
vt 0.024246 0.801025
vt 0.024216 0.612305
vt 0.946289 0.380859
vt 0.997559 0.262695
vt 0.943848 0.380371
vt 0.995605 0.261719
vt 0.998535 0.259766
vt 0.845215 0.385742
vt 0.842773 0.386719
vt 0.788086 0.262695
vt 0.790039 0.261230
vt 0.787109 0.259277
vt 0.789551 0.258789
vt 0.785156 0.239258
vt 0.788086 0.239258
vt 0.996094 0.258789
vt 0.997070 0.239258
vt 1.000000 0.239258
vt 0.781738 0.239746
vt 0.833008 0.122070
vt 0.779297 0.239258
vt 0.831055 0.120605
vt 0.833984 0.118652
vt 0.680176 0.245117
vt 0.623535 0.121582
vt 0.677734 0.245605
vt 0.625488 0.120117
vt 0.622559 0.118164
vt 0.831543 0.118164
vt 0.834961 0.098633
vt 0.832520 0.098145
vt 0.625000 0.117676
vt 0.620605 0.098633
vt 0.623535 0.098145
s 0
f 3/1/1 2/2/1 1/3/1
f 4/4/1 3/1/1 1/3/1
f 15/5/2 14/6/3 13/7/4
f 16/8/5 15/5/2 13/7/6
f 15/5/2 16/8/5 17/9/7
f 18/10/8 17/9/9 16/8/5
f 18/10/8 19/11/10 17/9/11
f 20/12/12 17/9/13 19/11/12
f 27/13/14 26/14/14 25/15/15
f 28/16/15 25/15/15 26/14/14
f 25/15/15 28/16/15 29/17/16
f 30/18/17 29/17/17 28/16/15
f 30/18/17 31/19/1 29/17/17
f 32/20/1 29/17/17 31/19/1
f 32/20/1 31/19/1 33/21/18
f 31/19/1 34/22/19 33/21/18
f 33/21/18 36/23/20 35/24/4
f 36/23/20 33/21/21 37/25/22
f 37/25/22 33/21/21 34/22/19
f 34/22/23 38/26/24 37/25/25
f 41/27/26 40/28/6 39/29/27
f 40/28/4 41/27/26 42/30/18
f 43/31/1 42/30/28 41/27/29
f 44/32/1 43/31/1 41/27/29
f 45/33/30 43/31/1 44/32/1
f 46/34/30 45/33/30 44/32/1
f 47/35/31 45/33/30 46/34/30
f 48/36/31 45/33/30 47/35/31
f 48/36/31 47/35/31 49/37/32
f 47/35/31 50/38/32 49/37/32
f 53/39/24 52/40/19 51/41/33
f 54/42/34 51/41/35 52/40/19
f 55/43/1 54/42/34 52/40/23
f 56/44/1 55/43/1 52/40/23
f 57/45/36 55/43/1 56/44/1
f 58/46/36 57/45/36 56/44/1
f 59/47/37 57/45/36 58/46/36
f 60/48/37 57/45/36 59/47/37
f 60/48/37 59/47/37 61/49/38
f 62/50/38 61/49/38 59/47/37
f 65/51/39 64/52/40 63/53/39
f 66/54/41 63/53/42 64/52/40
f 66/54/41 64/52/43 67/55/44
f 68/56/45 67/55/44 64/52/46
f 68/56/45 69/57/47 67/55/44
f 70/58/33 67/55/44 69/57/24
f 73/59/48 72/60/49 71/61/49
f 71/61/49 74/62/48 73/59/48
f 74/62/48 75/63/50 73/59/48
f 73/59/48 75/63/51 76/64/51
f 76/64/51 75/63/51 77/65/1
f 75/63/51 78/66/1 77/65/1
f 78/66/1 79/67/29 77/65/1
f 80/68/52 77/65/1 79/67/29
f 79/67/29 82/69/27 81/70/53
f 79/67/26 81/70/54 80/68/55
f 80/68/55 81/70/54 83/71/56
f 80/68/34 83/71/56 84/72/35
f 87/73/57 86/74/49 85/75/49
f 85/75/49 88/76/57 87/73/57
f 88/76/57 89/77/58 87/73/57
f 87/73/57 89/77/58 90/78/58
f 91/79/59 90/78/58 89/77/58
f 89/77/58 92/80/59 91/79/59
f 92/80/59 93/81/60 91/79/59
f 91/79/59 93/81/60 94/82/60
f 94/82/60 93/81/60 95/83/14
f 96/84/14 95/83/14 93/81/60
f 99/85/39 98/86/41 97/87/61
f 100/88/62 97/87/61 98/86/63
f 101/89/64 100/88/62 98/86/63
f 97/87/65 100/88/62 102/90/66
f 104/91/67 102/90/66 103/92/11
f 103/92/13 102/90/68 105/93/69
f 105/93/69 102/90/66 100/88/62
f 103/92/13 105/93/69 106/94/2
f 107/95/70 106/94/2 105/93/69
f 105/93/69 100/88/62 107/95/70
f 106/94/2 107/95/71 108/96/3
f 108/96/27 107/95/72 109/97/53
f 110/98/73 107/95/71 100/88/62
f 109/97/54 107/95/70 110/98/74
f 110/98/74 100/88/75 101/89/64
f 110/98/74 111/99/56 109/97/54
f 101/89/44 112/100/33 110/98/74
f 111/99/56 110/98/76 112/100/35
f 115/101/67 114/102/8 113/103/77
f 116/104/78 113/103/77 114/102/79
f 116/104/78 114/102/79 117/105/80
f 113/103/77 116/104/78 118/106/81
f 118/106/81 120/107/82 119/108/39
f 120/107/40 118/106/83 121/109/84
f 121/109/84 118/106/81 116/104/78
f 120/107/46 121/109/84 122/110/45
f 117/105/5 123/111/85 116/104/86
f 117/105/5 124/112/6 123/111/87
f 125/113/20 123/111/85 124/112/4
f 121/109/84 116/104/78 126/114/88
f 123/111/87 126/114/88 116/104/78
f 126/114/89 122/110/45 121/109/84
f 123/111/90 125/113/91 126/114/89
f 126/114/89 127/115/47 122/110/45
f 128/116/25 126/114/89 125/113/91
f 128/116/25 127/115/24 126/114/88
l 5 6
l 7 8
l 9 10
l 10 11
l 11 12
l 21 22
l 22 23
l 23 24
