# Blender 4.0.2
# www.blender.org
mtllib SM_TableBasse_01_Leg_3.mtl
o SM_TableBasse_01.004
v -0.189257 0.308746 0.180759
v -0.197986 0.330948 0.147803
v -0.144348 0.353039 0.193099
v -0.139041 0.330480 0.183597
v -0.170103 0.308569 0.174277
v -0.133733 0.307921 0.174096
v -0.178711 0.330791 0.182835
v -0.189192 0.353308 0.146442
v -0.178084 0.331056 0.147789
v -0.189257 0.308746 0.194464
v -0.139019 0.330964 0.203160
v -0.145881 0.222725 0.124762
v -0.140991 0.199330 0.120724
v -0.155092 0.175411 0.119364
v -0.156910 0.199280 0.120718
v -0.110782 0.199333 0.145338
v -0.139345 0.175521 0.143700
v -0.140991 0.199330 0.145337
v -0.155092 0.175473 0.160300
v -0.156910 0.199280 0.162117
v -0.109475 0.175484 0.143700
v -0.114664 0.222737 0.150202
v -0.141960 0.113299 0.121524
v -0.157961 0.113417 0.121501
v -0.166341 0.090794 0.127741
v -0.111552 0.113293 0.146302
v -0.139345 0.137105 0.143700
v -0.141957 0.113299 0.146298
v -0.149618 0.090515 0.127847
v -0.149581 0.090595 0.153876
v -0.166271 0.090930 0.171479
v -0.198914 0.033871 0.151995
v -0.198030 0.033220 0.180790
v -0.166527 0.053960 0.170723
v -0.178996 0.033632 0.183118
v -0.179053 0.033670 0.152154
v -0.193402 0.013864 0.164002
v -0.166269 0.054519 0.141597
v -0.176654 0.033220 0.203238
v -0.185457 0.053529 0.190665
v -0.198813 0.033797 0.204021
v -0.176654 0.015185 0.218899
v -0.213691 0.015185 0.218899
v -0.152448 0.013748 0.197546
v -0.140996 0.033665 0.183196
v -0.130798 0.054625 0.170417
v -0.188684 0.352434 0.192749
v -0.210116 0.352913 0.146510
v -0.176622 0.351872 0.214653
v -0.145872 0.222692 0.150189
v -0.188887 0.307564 0.144529
v -0.169828 0.307597 0.144536
v -0.114635 0.222609 0.167512
v -0.133726 0.307888 0.194196
v -0.139345 0.222544 0.167492
v -0.139345 0.137193 0.119364
v -0.139345 0.175486 0.119364
v -0.109475 0.137385 0.160300
v -0.109475 0.175405 0.160300
v -0.109475 0.137199 0.143700
v -0.155092 0.137217 0.160300
v -0.117528 0.090781 0.171556
v -0.117636 0.090487 0.153926
v -0.130811 0.054588 0.190122
v -0.234087 -0.004806 0.214515
v -0.234087 -0.004806 0.178186
v -0.210579 -0.004806 0.178186
v -0.214457 0.014435 0.163569
v -0.152007 0.014352 0.219749
v -0.165990 -0.004806 0.239294
v -0.165990 -0.004806 0.214515
v -0.192985 0.014317 0.197025
v -0.210579 -0.004806 0.214515
v -0.234087 -0.004806 0.239294
v -0.210579 -0.004806 0.239294
v -0.184968 0.054483 0.141611
v -0.140835 0.033879 0.204132
v -0.176654 0.053529 0.190665
v -0.139345 0.199282 0.162108
v -0.139345 0.113408 0.163134
v -0.139345 0.137217 0.160300
v -0.111528 0.113417 0.163170
v -0.209445 0.351872 0.214653
v -0.209445 0.351872 0.180759
v -0.197898 0.330989 0.180759
v -0.198633 0.330645 0.203841
v -0.176622 0.308746 0.194464
v -0.162284 0.222544 0.167492
v -0.176622 0.330989 0.203105
v -0.144247 0.352628 0.215140
v -0.155092 0.137370 0.119364
v -0.162284 0.222544 0.143700
v -0.139345 0.175473 0.160300
v -0.110776 0.199280 0.162118
v -0.157926 0.113408 0.143700
v -0.166271 0.090930 0.143700
v -0.157956 0.113415 0.163164
v -0.185457 0.053529 0.180790
v -0.213691 0.015185 0.180790
v -0.139345 0.090930 0.171479
v -0.162303 0.222603 0.124733
v -0.156900 0.199282 0.143700
v -0.155092 0.175473 0.143700
v -0.155092 0.137217 0.143700
vn -0.9495 -0.3139 -0.0000
vn -0.9052 -0.4250 -0.0000
vn -0.8440 -0.5364 -0.0000
vn -0.0000 -0.1580 -0.9874
vn -0.0000 -0.1337 -0.9910
vn -0.0000 0.0157 -0.9999
vn -0.0000 0.0628 -0.9980
vn -0.0000 0.0158 -0.9999
vn -0.0000 0.0629 -0.9980
vn -0.0000 0.1976 -0.9803
vn -0.0000 0.2128 -0.9771
vn -0.0000 0.4936 -0.8697
vn -0.0000 0.4876 -0.8730
vn 0.0079 0.3929 -0.9195
vn 0.0079 0.3930 -0.9195
vn -0.0000 0.4877 -0.8730
vn -0.0000 0.3068 -0.9518
vn -0.0000 0.2902 -0.9570
vn 0.9541 0.2996 -0.0000
vn 0.9591 0.2830 -0.0000
vn 0.9195 0.3930 0.0079
vn 0.9154 0.4025 0.0079
vn 0.8678 0.4970 -0.0000
vn 0.9154 0.4024 0.0079
vn 0.8677 0.4970 -0.0000
vn 0.0079 -0.4250 0.9051
vn -0.0000 -0.5364 0.8440
vn 0.0157 -0.4409 0.8974
vn 0.0079 -0.3233 0.9463
vn 0.0079 -0.4250 0.9052
vn -0.0000 -0.4091 0.9125
vn -0.0000 -0.3139 0.9495
vn -0.0000 -0.4090 0.9125
vn 0.9754 0.2202 -0.0000
vn 0.9736 0.2282 -0.0000
vn 0.9737 0.2277 -0.0000
vn 0.9715 0.2370 -0.0000
vn 0.9715 0.2369 -0.0000
vn -0.0000 0.2202 -0.9754
vn -0.0000 0.1182 -0.9930
vn -0.0000 0.1104 -0.9939
vn -0.0000 0.0236 -0.9997
vn -0.0000 0.1337 -0.9910
vn -0.0000 0.1414 -0.9900
vn -0.0000 0.2518 -0.9678
vn -0.0000 0.2591 -0.9658
vn -0.0000 0.1414 -0.9899
vn 0.9997 0.0236 -0.0000
vn 0.9910 0.1337 -0.0000
vn 0.9900 0.1414 -0.0000
vn 0.9899 0.1414 -0.0000
vn 0.9678 0.2518 -0.0000
vn 0.9658 0.2591 -0.0000
vn -0.0000 -0.1657 0.9862
vn -0.0000 -0.0315 0.9995
vn -0.0000 -0.1491 0.9888
vn -0.0000 -0.2830 0.9591
vn -0.0000 -0.1414 0.9899
vn 0.9947 0.1026 -0.0000
vn 0.9930 0.1182 -0.0000
vn 0.9947 0.1027 -0.0000
vn 0.9787 0.2052 -0.0000
vn 0.9771 0.2128 -0.0000
vn -0.0000 -0.0393 -0.9992
vn -0.0000 -0.0315 -0.9995
vn -0.0000 -0.1657 -0.9862
vn -0.0000 -0.1886 -0.9821
vn -0.0000 -0.0394 -0.9992
vn -0.0000 -0.3139 -0.9495
vn -0.0000 -0.3304 -0.9439
vn -0.0000 -0.2052 -0.9787
vn -0.0000 -0.0472 -0.9989
vn -0.0000 -0.2277 -0.9737
vn -0.0000 -0.3700 -0.9290
vn -0.0000 -0.3930 -0.9195
vn 0.9787 -0.2052 -0.0000
vn 0.9737 -0.2277 -0.0000
vn 0.9263 -0.3768 -0.0000
vn 0.9196 -0.3930 -0.0000
vn 0.9992 -0.0393 -0.0000
vn 0.9989 -0.0472 -0.0000
vn -0.0000 0.0472 0.9989
vn -0.0000 0.2370 0.9715
vn -0.0000 0.2685 0.9633
vn -0.0000 0.4251 0.9052
vn -0.0000 0.4250 0.9052
vn -0.0000 0.4156 0.9096
vn -0.0009 0.2370 0.9715
vn -0.0000 0.0394 0.9992
vn -0.0000 0.2127 0.9771
vn 0.9874 -0.1580 -0.0000
vn 0.9835 -0.1810 -0.0000
vn 0.9518 -0.3068 -0.0000
vn 0.9463 -0.3233 -0.0000
vn 0.9995 -0.0315 -0.0000
vn 0.9835 -0.1809 -0.0000
vn -0.0000 -0.4091 -0.9125
vn -0.0000 -0.3863 -0.9224
vn -0.0000 -0.4722 -0.8815
vn -0.0000 -0.4970 -0.8678
vn -0.0000 -0.5456 -0.8381
vn -0.0000 -0.5835 -0.8121
vn -0.0000 -0.4970 -0.8677
vn -0.7342 0.6789 -0.0000
vn -0.8057 0.5924 -0.0000
vn -0.7377 0.6749 0.0157
vn -0.8183 0.5744 0.0236
vn -0.8677 0.4970 -0.0000
vn -0.8730 0.4876 0.0079
vn -0.0000 -0.5455 -0.8381
vn -0.0000 -0.4472 -0.8944
vn -0.0000 -0.5655 -0.8247
vn -0.0000 -0.6199 -0.7847
vn -0.0000 -0.6456 -0.7637
vn 0.8345 -0.5511 -0.0000
vn 0.8247 -0.5655 -0.0000
vn 0.7816 -0.6237 -0.0000
vn 0.7565 -0.6540 -0.0000
vn 0.8928 -0.4504 -0.0000
vn 0.8782 -0.4783 -0.0000
vn -0.0000 0.4970 0.8678
vn 0.0158 0.4969 0.8677
vn -0.0000 0.5924 0.8057
vn 0.0158 0.6150 0.7884
vn 0.0156 0.4971 0.8676
vn -0.0000 0.5924 0.8056
vn 0.0158 0.6149 0.7884
vn -0.0000 0.6832 0.7303
vn 0.0079 0.6952 0.7188
vn 0.0157 0.6150 0.7884
vn -0.0000 0.6831 0.7303
vn -0.0079 0.6750 0.7378
vn 0.8897 -0.4566 -0.0000
vn 0.8764 -0.4816 -0.0000
vn 0.8498 -0.5272 -0.0000
vn 0.9290 -0.3700 -0.0000
vn 0.9195 -0.3930 -0.0000
vn -0.9495 -0.3139 -0.0002
vn -0.9591 -0.2830 -0.0000
vn -0.0000 0.2127 -0.9771
vn 0.9754 0.2203 -0.0000
vn 0.9771 0.2127 -0.0000
vn 0.9754 0.2204 -0.0000
vn 0.9755 0.2200 -0.0000
vn -0.0000 0.3067 -0.9518
vn -0.0000 0.0393 0.9992
vn -0.8678 0.4970 -0.0000
vn -0.9082 0.4185 -0.0000
vn 0.8929 -0.4504 -0.0000
vn -0.0079 0.4876 0.8730
vn -0.0000 -0.3929 -0.9196
vn -0.0000 -0.3930 -0.9196
vn -0.0000 0.4970 0.8677
vn -0.6992 0.7149 -0.0000
vn -0.6991 0.7150 -0.0000
vn 0.7342 -0.6789 -0.0000
vn -0.0000 -0.6063 -0.7953
vn -0.0000 0.7150 0.6991
vn -0.0078 0.6750 0.7378
vn 0.8084 -0.5887 -0.0000
vn -0.0000 -0.6749 -0.7379
vn -0.0000 -0.6753 -0.7376
vn -0.6990 0.7151 -0.0000
vn -0.7188 0.6951 -0.0079
vn 0.0079 0.6951 0.7188
vn -0.0000 0.7147 0.6994
vn -0.0000 0.7152 0.6990
vn 0.0005 -0.1491 0.9888
vn -0.0002 -0.2830 0.9591
vn -0.9715 0.2370 -0.0000
vn -0.0157 0.5744 0.8184
vn -0.0075 0.6749 0.7379
vn -0.0157 0.5745 0.8184
vn -0.0004 -0.1491 0.9888
vn -0.0000 0.2369 0.9715
vn -0.9051 -0.4250 -0.0079
vn -0.9052 -0.4251 -0.0000
vn -0.9463 -0.3233 -0.0079
vn -0.8974 -0.4408 -0.0157
vn -0.9053 -0.4248 -0.0075
vn -0.8975 -0.4408 -0.0157
vn -0.8974 -0.4409 -0.0157
vn 0.0078 -0.3234 0.9462
vn -0.9995 -0.0315 -0.0000
vn -0.9899 -0.1414 -0.0000
vn -0.9992 0.0393 -0.0000
vn -0.9771 0.2127 -0.0000
vn -0.9989 0.0472 -0.0000
vn -0.9992 0.0394 -0.0000
vn -0.9862 -0.1657 -0.0000
vn -0.9888 -0.1491 -0.0000
vn -0.9591 -0.2830 -0.0006
vn -0.0000 -0.1414 0.9900
vn -0.9082 0.4186 -0.0000
vn -0.9715 0.2369 -0.0000
vn -0.9715 0.2370 0.0016
vn -0.9715 0.2370 -0.0016
vn -0.9633 0.2685 -0.0000
vn -0.9052 0.4250 -0.0000
vn -0.8183 0.5743 0.0236
vn -0.7884 0.6149 -0.0158
vn -0.8677 0.4969 -0.0158
vn -0.7884 0.6150 -0.0158
vn -0.7884 0.6150 -0.0157
vn -0.7188 0.6952 -0.0079
vn -0.0074 0.4877 0.8730
vn -0.9591 -0.2830 0.0002
vn -0.9888 -0.1491 0.0003
vn -0.9995 -0.0315 0.0004
vn -0.9900 -0.1414 -0.0000
vt 0.353516 0.165527
vt 0.337158 0.166016
vt 0.351807 0.176758
vt 0.337158 0.187500
vt 0.352539 0.187988
vt 0.725098 0.119629
vt 0.715820 0.120605
vt 0.721191 0.130371
vt 0.712402 0.131836
vt 0.718750 0.141602
vt 0.710449 0.143066
vt 0.207764 0.802979
vt 0.188721 0.808838
vt 0.206787 0.814819
vt 0.189575 0.819824
vt 0.206055 0.826416
vt 0.190308 0.830811
vt 0.697754 0.138672
vt 0.697266 0.127441
vt 0.695312 0.116699
vt 0.435791 0.612793
vt 0.435547 0.623535
vt 0.445801 0.613037
vt 0.441895 0.602295
vt 0.418945 0.612305
vt 0.436035 0.602051
vt 0.416748 0.601074
vt 0.420898 0.623535
vt 0.181641 0.828491
vt 0.181152 0.816895
vt 0.179565 0.805298
vt 0.714355 0.182617
vt 0.707031 0.184082
vt 0.712891 0.193848
vt 0.706055 0.194336
vt 0.705078 0.204590
vt 0.711914 0.205078
vt 0.191162 0.881714
vt 0.204590 0.879883
vt 0.191040 0.871460
vt 0.204834 0.868408
vt 0.191528 0.892029
vt 0.205078 0.891174
vt 0.693848 0.203125
vt 0.694824 0.191895
vt 0.695801 0.180664
vt 0.428955 0.550293
vt 0.428467 0.539551
vt 0.420898 0.550049
vt 0.409424 0.560547
vt 0.408203 0.549805
vt 0.183960 0.892090
vt 0.183838 0.880920
vt 0.183472 0.869629
vt 0.710449 0.222656
vt 0.703125 0.221680
vt 0.702148 0.231934
vt 0.708984 0.233887
vt 0.701172 0.242188
vt 0.708008 0.245605
vt 0.192627 0.919006
vt 0.205688 0.909119
vt 0.192139 0.908875
vt 0.206055 0.920593
vt 0.193359 0.929443
vt 0.207397 0.932434
vt 0.691406 0.232422
vt 0.689453 0.244141
vt 0.692383 0.221191
vt 0.421875 0.522217
vt 0.428955 0.522461
vt 0.422119 0.511475
vt 0.430420 0.511719
vt 0.422363 0.500488
vt 0.434570 0.500977
vt 0.412598 0.500244
vt 0.408447 0.521973
vt 0.409668 0.510986
vt 0.185547 0.921021
vt 0.186157 0.932678
vt 0.184692 0.909485
vt 0.706055 0.265137
vt 0.699219 0.260742
vt 0.697754 0.272461
vt 0.705078 0.277832
vt 0.696777 0.284180
vt 0.704102 0.290039
vt 0.337158 0.024414
vt 0.337158 0.035156
vt 0.344727 0.023926
vt 0.350098 0.035156
vt 0.337158 0.045898
vt 0.354736 0.046387
vt 0.195679 0.959198
vt 0.209961 0.952606
vt 0.194702 0.947632
vt 0.211670 0.964935
vt 0.196655 0.971039
vt 0.213623 0.977448
vt 0.684570 0.276855
vt 0.682617 0.289551
vt 0.686523 0.264160
vt 0.439697 0.482422
vt 0.443848 0.482422
vt 0.440186 0.471680
vt 0.449951 0.471680
vt 0.440430 0.460938
vt 0.457031 0.461426
vt 0.429199 0.459961
vt 0.187866 0.964600
vt 0.188843 0.977127
vt 0.187134 0.952179
vt 0.353760 0.125488
vt 0.420654 0.560791
vt 0.430908 0.561279
vt 0.421387 0.539307
vt 0.353760 0.064941
vt 0.419189 0.482422
vt 0.321777 0.011719
vt 0.338135 0.011719
vt 0.695312 0.297363
vt 0.679688 0.303223
vt 0.703125 0.304199
vt 0.436035 0.447754
vt 0.456055 0.448242
vt 0.189209 0.991005
vt 0.197754 0.983719
vt 0.216431 0.991287
vt 0.310791 0.011719
vt 0.319824 0.024414
vt 0.466553 0.448730
vt 0.450195 0.623779
vt 0.353760 0.075684
vt 0.360840 0.064941
vt 0.423828 0.471191
vt 0.337158 0.176758
vt 0.330811 0.166016
vt 0.343018 0.125488
vt 0.326660 0.176758
vt 0.321777 0.187500
vt 0.364746 0.104004
vt 0.353760 0.104004
vt 0.364014 0.114746
vt 0.364746 0.086426
vt 0.363770 0.075684
vt 0.353760 0.086426
vt 0.345459 0.114746
vt 0.353760 0.114746
vt 0.346191 0.104004
vt 0.407715 0.539062
vt 0.344971 0.075684
vt 0.346191 0.086426
vt 0.341309 0.064941
vt 0.326660 0.035156
vt 0.332520 0.045898
vt 0.362305 0.125488
s 0
f 51/1/1 1/2/1 2/3/2
f 2/3/2 84/4/3 48/5/3
f 48/6/4 8/7/5 2/8/6
f 9/9/7 2/8/8 8/7/5
f 2/8/6 9/9/9 51/10/10
f 52/11/11 51/10/10 9/9/9
f 47/12/12 3/13/13 7/14/14
f 4/15/15 7/14/15 3/13/16
f 7/14/15 4/15/15 5/16/17
f 6/17/18 5/16/17 4/15/15
f 5/18/19 52/11/20 9/9/21
f 7/19/22 5/18/19 9/9/21
f 47/20/23 7/19/22 8/7/23
f 7/19/24 9/9/21 8/7/25
f 89/21/26 49/22/27 86/23/28
f 86/23/28 10/24/29 89/21/30
f 11/25/31 87/26/32 54/27/32
f 11/25/31 89/21/26 87/26/32
f 90/28/27 89/21/30 11/25/33
f 54/29/34 6/17/34 4/15/35
f 11/30/36 54/29/34 4/15/36
f 90/31/37 11/30/36 3/13/37
f 11/30/36 4/15/36 3/13/38
f 101/32/39 12/33/11 15/34/40
f 13/35/41 15/34/40 12/33/11
f 57/36/42 14/37/42 13/35/41
f 15/34/40 13/35/41 14/37/42
f 16/38/43 18/39/44 22/40/45
f 50/41/46 22/40/45 18/39/47
f 21/42/42 17/43/42 16/38/43
f 18/39/47 16/38/43 17/43/42
f 17/44/48 57/36/48 13/35/49
f 18/45/50 17/44/48 13/35/49
f 18/45/51 13/35/49 12/33/52
f 50/46/53 18/45/50 12/33/52
f 20/47/54 19/48/55 79/49/56
f 53/50/57 79/49/56 94/51/58
f 59/52/48 21/42/48 16/38/59
f 94/53/60 59/52/48 16/38/59
f 94/53/60 16/38/61 22/40/62
f 53/54/63 94/53/60 22/40/62
f 91/55/64 56/56/65 23/57/66
f 23/57/66 24/58/67 91/55/68
f 24/58/67 23/57/66 29/59/69
f 29/59/69 25/60/70 24/58/67
f 26/61/71 27/62/72 60/63/68
f 26/61/71 28/64/73 27/62/72
f 63/65/74 28/64/73 26/61/71
f 63/65/74 30/66/75 28/64/73
f 23/57/76 28/67/77 29/59/78
f 30/68/79 29/59/78 28/67/77
f 56/56/80 27/69/81 23/57/76
f 28/67/77 23/57/76 27/69/81
f 81/70/82 61/71/82 80/72/83
f 80/72/83 97/73/84 100/74/85
f 31/75/86 100/74/86 97/73/84
f 100/74/86 62/76/87 80/72/88
f 58/77/89 81/70/82 82/78/90
f 26/61/91 82/79/92 63/65/93
f 62/80/94 63/65/93 82/79/92
f 60/63/95 58/81/95 26/61/91
f 82/79/96 26/61/91 58/81/95
f 76/82/97 38/83/98 36/84/99
f 36/84/99 32/85/100 76/82/97
f 32/85/100 36/84/99 37/86/101
f 37/86/101 68/87/102 32/85/103
f 99/88/104 33/89/105 68/90/106
f 32/91/107 98/92/108 76/93/109
f 45/94/110 34/95/99 46/96/111
f 45/94/101 35/97/112 34/95/99
f 44/98/113 35/97/112 45/94/110
f 44/98/113 72/99/114 35/97/112
f 36/84/115 35/100/116 37/86/117
f 72/101/118 37/86/117 35/100/116
f 38/83/119 34/102/120 36/84/115
f 35/100/116 36/84/115 34/102/120
f 78/103/121 40/104/122 39/105/123
f 41/106/124 39/105/123 40/104/125
f 39/105/126 41/106/127 42/107/128
f 43/108/129 42/107/128 41/106/130
f 42/107/131 69/109/132 39/105/126
f 45/94/133 77/110/134 44/98/135
f 69/111/116 44/98/135 77/110/134
f 46/96/136 64/112/137 45/94/133
f 77/110/134 45/94/133 64/112/79
f 51/1/138 92/113/139 1/2/1
f 5/18/19 50/46/53 52/11/20
f 12/33/52 52/11/20 50/46/53
f 52/11/140 101/32/39 51/10/10
f 12/33/140 101/32/39 52/11/140
f 53/50/57 54/27/32 55/114/57
f 87/26/32 55/114/57 54/27/32
f 54/29/141 53/54/142 6/17/143
f 22/40/62 6/17/144 53/54/142
f 6/17/18 50/41/46 5/16/145
f 22/40/45 50/41/46 6/17/18
f 55/114/57 87/26/32 88/115/57
f 57/36/48 17/44/48 56/56/80
f 27/69/81 56/56/80 17/44/48
f 14/37/42 57/36/42 91/55/64
f 56/56/65 91/55/64 57/36/42
f 93/116/55 81/70/82 58/77/146
f 59/52/48 58/81/95 21/42/48
f 60/63/95 21/42/48 58/81/95
f 21/42/42 60/63/64 17/43/42
f 27/62/72 17/43/42 60/63/64
f 81/70/82 19/48/55 61/71/82
f 98/92/147 96/117/148 76/93/109
f 29/59/78 30/68/137 38/83/149
f 30/68/137 34/102/120 38/83/119
f 29/59/69 38/83/98 25/60/70
f 76/82/97 25/60/70 38/83/98
f 64/118/150 62/76/87 100/74/86
f 63/65/93 62/80/94 46/96/136
f 62/80/94 64/112/137 46/96/136
f 63/65/74 46/96/111 30/66/151
f 34/95/99 30/66/152 46/96/111
f 31/75/86 78/103/153 100/74/86
f 78/103/153 31/75/86 40/104/122
f 65/119/154 99/88/104 66/120/154
f 68/90/106 66/120/155 99/88/104
f 37/86/117 72/101/118 67/121/156
f 72/101/118 73/122/156 67/121/156
f 37/86/101 67/121/157 68/87/102
f 66/123/157 68/87/102 67/121/157
f 42/107/131 70/124/158 69/109/159
f 42/107/131 75/125/158 70/124/158
f 69/111/116 70/126/160 71/127/160
f 71/127/160 44/98/135 69/111/116
f 44/98/113 71/127/161 72/99/114
f 73/128/162 72/99/114 71/127/161
f 74/129/163 43/130/164 65/119/163
f 43/108/165 75/125/166 42/107/131
f 74/131/158 75/125/167 43/108/165
f 83/132/27 86/23/28 49/22/27
f 88/115/57 20/47/54 55/114/57
f 79/49/168 55/114/57 20/47/54
f 53/50/57 55/114/169 79/49/56
f 96/117/148 95/133/170 25/134/148
f 25/134/148 76/93/109 96/117/148
f 77/135/171 39/105/123 69/109/172
f 39/105/126 77/135/173 78/103/153
f 94/51/58 79/49/174 93/116/55
f 93/116/55 79/49/56 19/48/55
f 93/116/55 19/48/55 81/70/82
f 97/73/84 80/72/83 61/71/82
f 80/72/175 82/78/90 81/70/82
f 82/78/90 80/72/175 62/76/87
f 85/136/176 2/3/177 1/2/1
f 85/136/176 84/4/3 2/3/2
f 1/2/1 10/137/178 85/136/176
f 1/2/1 88/138/139 10/137/178
f 86/139/179 85/136/180 10/137/178
f 85/136/176 86/139/181 84/4/3
f 83/140/3 84/4/3 86/139/182
f 87/26/32 89/21/26 10/24/29
f 10/24/183 88/115/57 87/26/32
f 90/28/27 49/22/27 89/21/26
f 14/141/184 103/142/184 15/143/185
f 14/141/184 91/144/186 103/142/184
f 24/145/187 104/146/188 91/144/189
f 104/146/188 103/142/184 91/144/186
f 20/147/190 102/148/191 19/149/184
f 102/148/191 20/147/190 92/113/192
f 88/138/139 92/113/139 20/147/190
f 88/138/139 1/2/1 92/113/139
f 94/51/193 93/116/55 59/150/55
f 59/150/55 93/116/55 58/77/146
f 25/134/194 95/133/195 24/145/187
f 95/133/196 104/146/188 24/145/187
f 95/133/197 96/117/194 97/151/198
f 97/151/198 61/152/188 95/133/170
f 31/153/199 97/151/198 96/117/194
f 96/117/148 98/92/108 31/153/199
f 68/90/106 33/89/105 32/91/107
f 33/89/105 98/92/147 32/91/200
f 33/89/105 99/88/104 41/154/201
f 40/155/202 33/89/105 41/154/203
f 41/154/204 99/88/104 43/130/205
f 99/88/104 65/119/154 43/130/205
f 40/155/202 98/92/147 33/89/105
f 40/155/202 31/153/199 98/92/108
f 64/118/150 78/103/153 77/135/173
f 64/118/206 100/74/86 78/103/153
f 92/113/207 51/1/1 101/156/139
f 92/113/139 101/156/139 102/148/208
f 102/148/191 15/143/185 103/142/209
f 15/143/210 102/148/191 101/156/139
f 103/142/184 19/149/184 102/148/191
f 103/142/184 61/152/188 19/149/184
f 61/152/188 103/142/184 104/146/188
f 104/146/188 95/133/170 61/152/188
