# Blender 4.0.2
# www.blender.org
mtllib SM_TableBasse_01_Leg_4.mtl
o SM_TableBasse_01.005
v 0.145110 0.307928 0.174097
v 0.181213 0.330797 0.182845
v 0.155826 0.353033 0.193095
v 0.150465 0.331076 0.182183
v 0.172949 0.308507 0.174260
v 0.180626 0.331099 0.147783
v 0.172707 0.307611 0.144540
v 0.199303 0.307564 0.144529
v 0.208402 0.330948 0.147803
v 0.220532 0.352913 0.146509
v 0.191318 0.353461 0.146416
v 0.120684 0.175406 0.160300
v 0.120684 0.175485 0.143700
v 0.122000 0.199333 0.145338
v 0.125908 0.222736 0.150201
v 0.121994 0.199280 0.162118
v 0.145109 0.199333 0.145337
v 0.149783 0.222706 0.150193
v 0.149801 0.222771 0.124772
v 0.145111 0.199349 0.120726
v 0.165508 0.175411 0.119364
v 0.120684 0.137196 0.143700
v 0.128900 0.090489 0.153925
v 0.122751 0.113417 0.163170
v 0.122774 0.113293 0.146302
v 0.143533 0.137117 0.143700
v 0.146035 0.113293 0.146300
v 0.146046 0.113255 0.121532
v 0.181499 0.033629 0.183141
v 0.163942 0.013762 0.197533
v 0.152420 0.033664 0.183194
v 0.152257 0.033877 0.204131
v 0.142159 0.054608 0.170425
v 0.142173 0.054571 0.190131
v 0.169489 0.054087 0.170665
v 0.179236 0.033220 0.203238
v 0.179236 0.053529 0.190665
v 0.224108 0.015185 0.180790
v 0.209330 0.033870 0.151995
v 0.181607 0.033586 0.152219
v 0.169294 0.054528 0.141593
v 0.155723 0.352622 0.215136
v 0.219861 0.351872 0.180759
v 0.145102 0.307895 0.194198
v 0.120684 0.137383 0.160300
v 0.143533 0.137126 0.119364
v 0.143533 0.175517 0.143700
v 0.143533 0.175514 0.119364
v 0.153343 0.090562 0.153892
v 0.128791 0.090783 0.171555
v 0.153410 0.090410 0.127887
v 0.176757 0.090794 0.127741
v 0.211699 -0.004806 0.214515
v 0.163499 0.014366 0.219735
v 0.177589 -0.004806 0.214515
v 0.177589 -0.004806 0.239294
v 0.244503 -0.004806 0.239294
v 0.224108 0.015185 0.218899
v 0.194980 0.014185 0.197146
v 0.195466 0.013633 0.164178
v 0.211699 -0.004806 0.178186
v 0.224874 0.014434 0.163569
v 0.244503 -0.004806 0.178186
v 0.190791 0.352513 0.192795
v 0.168342 0.113408 0.143700
v 0.165508 0.175473 0.143700
v 0.165508 0.137370 0.119364
v 0.195385 0.054483 0.141611
v 0.168372 0.113415 0.163164
v 0.165508 0.137217 0.143700
v 0.168378 0.113417 0.121501
v 0.179205 0.308746 0.194464
v 0.150413 0.330258 0.204667
v 0.179205 0.330989 0.203105
v 0.209049 0.330645 0.203841
v 0.179205 0.351872 0.214653
v 0.199673 0.308746 0.194464
v 0.172700 0.222544 0.167492
v 0.219861 0.351872 0.214653
v 0.208314 0.330989 0.180759
v 0.143533 0.199282 0.162108
v 0.125879 0.222608 0.167512
v 0.143533 0.175473 0.160300
v 0.167326 0.199280 0.162117
v 0.143533 0.222544 0.167492
v 0.143533 0.090930 0.171479
v 0.143533 0.113408 0.163134
v 0.165508 0.137217 0.160300
v 0.176688 0.090931 0.143700
v 0.179236 0.015185 0.218899
v 0.209230 0.033797 0.204021
v 0.211699 -0.004806 0.239294
v 0.195874 0.053529 0.190665
v 0.176688 0.090931 0.171479
v 0.244503 -0.004806 0.214515
v 0.208447 0.033220 0.180790
v 0.195874 0.053529 0.180790
v 0.143533 0.137217 0.160300
v 0.165508 0.175473 0.160300
v 0.167316 0.199282 0.143700
v 0.167326 0.199280 0.120718
v 0.172700 0.222544 0.143700
v 0.199673 0.308746 0.180759
v 0.172719 0.222603 0.124733
vn -0.9754 0.2203 -0.0000
vn -0.9738 0.2275 -0.0000
vn -0.9737 0.2277 -0.0000
vn -0.9715 0.2370 -0.0000
vn -0.9697 0.2444 -0.0000
vn -0.9715 0.2369 -0.0000
vn 0.0079 0.3930 -0.9195
vn -0.0000 0.4877 -0.8730
vn -0.0000 0.4970 -0.8678
vn 0.0079 0.3929 -0.9195
vn 0.0079 0.3795 -0.9251
vn -0.0000 0.4876 -0.8730
vn -0.0000 0.2924 -0.9563
vn -0.0000 0.2830 -0.9591
vn -0.9263 0.3768 0.0078
vn -0.9223 0.3863 0.0079
vn -0.8764 0.4816 -0.0000
vn -0.9224 0.3863 0.0079
vn -0.9612 0.2758 -0.0000
vn -0.9591 0.2830 -0.0000
vn 0.0079 -0.3162 0.9487
vn -0.0000 -0.3233 0.9463
vn 0.0316 -0.4183 0.9077
vn 0.9495 -0.3139 -0.0000
vn 0.9052 -0.4250 -0.0000
vn 0.8440 -0.5364 -0.0000
vn 0.9052 -0.4251 -0.0009
vn -0.0000 0.0157 -0.9999
vn -0.0000 -0.1337 -0.9910
vn -0.0000 -0.1580 -0.9874
vn -0.0000 0.0629 -0.9980
vn -0.0000 0.1976 -0.9803
vn -0.0000 0.2128 -0.9771
vn -0.0000 0.1414 -0.9899
vn -0.0000 0.2518 -0.9678
vn -0.0000 0.2591 -0.9658
vn -0.0000 0.1337 -0.9910
vn -0.0000 0.0236 -0.9997
vn -0.0000 0.1414 -0.9900
vn -0.9997 0.0236 -0.0000
vn -0.9947 0.1026 -0.0000
vn -0.9930 0.1182 -0.0000
vn -0.9787 0.2052 -0.0000
vn -0.9771 0.2128 -0.0000
vn -0.9920 0.1260 -0.0000
vn -0.9910 0.1337 -0.0000
vn -0.9678 0.2518 -0.0000
vn -0.0000 0.1182 -0.9930
vn -0.0000 0.2203 -0.9754
vn -0.0000 0.1104 -0.9939
vn -0.0000 -0.2277 -0.9737
vn -0.0000 -0.2052 -0.9787
vn -0.0000 -0.0472 -0.9989
vn -0.0000 -0.0393 -0.9992
vn -0.0000 -0.3700 -0.9290
vn -0.0000 -0.3930 -0.9196
vn -0.9821 -0.1885 -0.0000
vn -0.9862 -0.1657 -0.0000
vn -0.9518 -0.3068 -0.0000
vn -0.9463 -0.3233 -0.0000
vn -0.9995 -0.0315 -0.0000
vn -0.9821 -0.1886 -0.0000
vn -0.9992 -0.0393 -0.0000
vn -0.9806 -0.1961 -0.0000
vn -0.9754 -0.2202 -0.0000
vn -0.9754 -0.2203 -0.0000
vn -0.9317 -0.3632 -0.0000
vn -0.9263 -0.3768 -0.0000
vn -0.0000 -0.1886 -0.9821
vn -0.0000 -0.1657 -0.9862
vn -0.0000 -0.0394 -0.9992
vn -0.0000 -0.0315 -0.9995
vn -0.0000 -0.3139 -0.9495
vn -0.0000 -0.3303 -0.9439
vn -0.0000 -0.1885 -0.9821
vn -0.0000 -0.4472 -0.8944
vn -0.0000 -0.4722 -0.8815
vn -0.0000 -0.5455 -0.8381
vn -0.0000 -0.5655 -0.8247
vn -0.0000 -0.5456 -0.8381
vn -0.0000 -0.6199 -0.7847
vn -0.0000 -0.6456 -0.7637
vn -0.8764 -0.4816 -0.0000
vn -0.8440 -0.5364 -0.0000
vn -0.8247 -0.5655 -0.0000
vn -0.8864 -0.4628 -0.0000
vn -0.9154 -0.4025 -0.0000
vn -0.9290 -0.3700 -0.0000
vn -0.8864 -0.4629 -0.0000
vn -0.8345 -0.5511 -0.0000
vn -0.8462 -0.5328 -0.0000
vn -0.9007 -0.4345 -0.0000
vn -0.7708 -0.6371 -0.0000
vn -0.8345 -0.5510 -0.0000
vn -0.7952 -0.6063 -0.0000
vn -0.0000 0.5924 0.8056
vn 0.0158 0.6788 0.7341
vn -0.0000 0.6789 0.7342
vn -0.0000 0.4876 0.8730
vn 0.0079 0.4876 0.8730
vn 0.0236 0.5743 0.8183
vn 0.7342 0.6789 -0.0000
vn 0.7377 0.6749 0.0157
vn 0.8057 0.5924 -0.0000
vn 0.8730 0.4876 0.0079
vn 0.8678 0.4970 -0.0000
vn 0.8183 0.5743 0.0236
vn -0.0000 -0.3863 -0.9224
vn -0.0000 -0.4090 -0.9125
vn -0.0000 -0.4970 -0.8678
vn -0.0000 -0.4970 -0.8677
vn -0.0000 -0.5835 -0.8121
vn -0.9755 0.2199 -0.0000
vn 0.0079 -0.3162 0.9486
vn -0.0000 -0.2830 0.9591
vn 0.9591 -0.2830 0.0001
vn -0.0000 0.2202 -0.9754
vn -0.0000 -0.3930 -0.9195
vn -0.0000 0.4876 0.8731
vn -0.0000 0.4186 0.9082
vn 0.9082 0.4185 -0.0000
vn -0.0000 -0.4091 -0.9125
vn -0.0000 -0.6749 -0.7379
vn -0.8058 -0.5922 -0.0000
vn -0.0000 0.7150 0.6991
vn 0.0158 0.6789 0.7341
vn -0.0000 0.7149 0.6992
vn -0.0000 0.6952 0.7188
vn 0.7188 0.6951 -0.0079
vn 0.6991 0.7150 -0.0000
vn -0.7491 -0.6625 -0.0000
vn -0.7492 -0.6623 -0.0000
vn 0.6989 0.7152 -0.0000
vn 0.6994 0.7147 -0.0000
vn 0.6992 0.7149 -0.0000
vn -0.0000 -0.6061 -0.7954
vn -0.0000 -0.6062 -0.7953
vn 0.9715 0.2370 0.0011
vn 0.9989 0.0472 -0.0000
vn 0.9715 0.2370 -0.0000
vn 0.9995 -0.0315 -0.0000
vn 0.9992 0.0393 -0.0000
vn 0.9771 0.2127 -0.0000
vn -0.0000 0.2370 0.9715
vn -0.0000 0.4185 0.9082
vn -0.0000 0.0472 0.9989
vn -0.0000 0.2591 0.9658
vn -0.0012 0.2370 0.9715
vn 0.8677 0.4970 -0.0000
vn 0.9633 0.2685 -0.0000
vn 0.9715 0.2369 -0.0000
vn 0.9771 0.2128 -0.0000
vn 0.9082 0.4186 -0.0000
vn 0.0079 -0.4250 0.9052
vn 0.0316 -0.4184 0.9077
vn 0.0079 -0.4250 0.9051
vn 0.0079 -0.5271 0.8497
vn -0.0000 -0.5272 0.8498
vn 0.0079 -0.5272 0.8497
vn -0.0079 -0.3233 0.9463
vn -0.0157 -0.4408 0.8974
vn -0.0157 -0.4408 0.8975
vn -0.0000 -0.5364 0.8440
vn -0.0157 -0.4409 0.8974
vn 0.9463 -0.3233 -0.0079
vn 0.9051 -0.4250 -0.0079
vn 0.9463 -0.3233 -0.0078
vn 0.9591 -0.2830 -0.0000
vn 0.8974 -0.4408 -0.0157
vn 0.9052 -0.4250 -0.0079
vn 0.8975 -0.4408 -0.0157
vn 0.8974 -0.4409 -0.0157
vn 0.9052 -0.4251 -0.0000
vn 0.8440 -0.5363 -0.0000
vn -0.0000 -0.0315 0.9995
vn -0.0000 -0.1414 0.9900
vn -0.0000 0.0393 0.9992
vn 0.0003 -0.1491 0.9888
vn -0.0000 -0.1491 0.9888
vn -0.0000 -0.1657 0.9862
vn -0.0000 0.4251 0.9052
vn 0.9052 0.4250 -0.0000
vn 0.9052 0.4251 -0.0000
vn -0.0000 0.5924 0.8057
vn 0.0236 0.5744 0.8183
vn -0.0157 0.6150 0.7884
vn -0.0158 0.6149 0.7884
vn -0.0079 0.4970 0.8677
vn -0.0158 0.6150 0.7884
vn 0.7884 0.6149 -0.0158
vn 0.7884 0.6150 -0.0158
vn 0.8677 0.4969 -0.0158
vn 0.7188 0.6952 -0.0079
vn 0.7884 0.6150 -0.0157
vn 0.8183 0.5744 0.0236
vn 0.8056 0.5924 -0.0000
vn 0.7378 0.6748 0.0154
vn -0.0000 0.2128 0.9771
vn -0.0000 0.2127 0.9771
vn -0.0000 0.2369 0.9715
vn 0.9888 -0.1491 -0.0000
vn 0.9900 -0.1414 -0.0000
vn 0.9888 -0.1491 0.0004
vn 0.9899 -0.1414 -0.0000
vn 0.9862 -0.1657 -0.0000
vn 0.9888 -0.1491 -0.0006
vn 0.9495 -0.3139 -0.0001
vn 0.9591 -0.2830 0.0003
vn -0.0000 -0.1414 0.9899
vn 0.0005 -0.0315 0.9995
vn -0.0004 -0.2830 0.9591
vt 0.193115 0.536133
vt 0.202026 0.533936
vt 0.193848 0.525146
vt 0.203491 0.522217
vt 0.195068 0.514160
vt 0.204102 0.510742
vt 0.180786 0.520996
vt 0.180542 0.509521
vt 0.181030 0.532471
vt 0.812988 0.085938
vt 0.828613 0.083008
vt 0.810547 0.075195
vt 0.831055 0.071777
vt 0.814453 0.097656
vt 0.827148 0.094238
vt 0.288818 0.601562
vt 0.273438 0.602051
vt 0.286377 0.612793
vt 0.217163 0.166016
vt 0.200806 0.165527
vt 0.202271 0.176758
vt 0.201660 0.187988
vt 0.217041 0.187500
vt 0.800781 0.083496
vt 0.797363 0.073242
vt 0.802734 0.094727
vt 0.180908 0.586670
vt 0.191650 0.577393
vt 0.180908 0.574951
vt 0.191284 0.588135
vt 0.180420 0.597900
vt 0.190918 0.598633
vt 0.198486 0.598633
vt 0.198730 0.587158
vt 0.199341 0.575928
vt 0.814941 0.148438
vt 0.825684 0.146973
vt 0.814941 0.138184
vt 0.826172 0.135254
vt 0.814941 0.158691
vt 0.826172 0.158203
vt 0.805176 0.146973
vt 0.804688 0.135742
vt 0.805176 0.158203
vt 0.179932 0.627441
vt 0.190186 0.625977
vt 0.180054 0.615967
vt 0.190552 0.615723
vt 0.189941 0.636475
vt 0.179077 0.639404
vt 0.197510 0.627686
vt 0.197388 0.639648
vt 0.197998 0.616211
vt 0.826172 0.176270
vt 0.814941 0.175293
vt 0.814941 0.185547
vt 0.825684 0.187500
vt 0.814941 0.195801
vt 0.826172 0.199219
vt 0.805664 0.187500
vt 0.805176 0.175781
vt 0.805176 0.199219
vt 0.189453 0.655273
vt 0.177856 0.659668
vt 0.189209 0.666992
vt 0.177002 0.672119
vt 0.188965 0.678955
vt 0.176147 0.684814
vt 0.197388 0.671875
vt 0.197266 0.684570
vt 0.197388 0.659424
vt 0.827148 0.231934
vt 0.826660 0.219238
vt 0.814941 0.225586
vt 0.814941 0.214355
vt 0.827637 0.244629
vt 0.814453 0.237793
vt 0.273193 0.471680
vt 0.280273 0.459961
vt 0.273193 0.460938
vt 0.273193 0.482422
vt 0.290039 0.482910
vt 0.285400 0.471680
vt 0.217651 0.024414
vt 0.209839 0.023926
vt 0.217529 0.035156
vt 0.199951 0.046387
vt 0.217529 0.045898
vt 0.204590 0.035156
vt 0.804199 0.219238
vt 0.803711 0.231934
vt 0.803223 0.244141
vt 0.289307 0.561279
vt 0.200562 0.125488
vt 0.289307 0.500977
vt 0.193604 0.064941
vt 0.200806 0.064941
vt 0.188721 0.691895
vt 0.174683 0.698975
vt 0.197876 0.698730
vt 0.258545 0.447754
vt 0.273926 0.447754
vt 0.243896 0.447754
vt 0.252930 0.460938
vt 0.234741 0.024414
vt 0.244019 0.011719
vt 0.232788 0.011719
vt 0.828613 0.258301
vt 0.814453 0.250000
vt 0.216431 0.011719
vt 0.801758 0.258301
vt 0.200684 0.075684
vt 0.200684 0.086426
vt 0.208130 0.086426
vt 0.208130 0.104004
vt 0.189697 0.086426
vt 0.200684 0.103516
vt 0.190796 0.075684
vt 0.295898 0.500977
vt 0.289307 0.511719
vt 0.279541 0.522705
vt 0.278076 0.511719
vt 0.209473 0.075684
vt 0.273438 0.612793
vt 0.283936 0.623779
vt 0.273438 0.623535
vt 0.264160 0.602051
vt 0.276123 0.561279
vt 0.260010 0.612793
vt 0.255127 0.623535
vt 0.223267 0.166016
vt 0.217041 0.176758
vt 0.211304 0.125488
vt 0.227539 0.176758
vt 0.232300 0.187500
vt 0.299561 0.539795
vt 0.289307 0.539795
vt 0.299072 0.550537
vt 0.299561 0.522705
vt 0.297363 0.561279
vt 0.289307 0.550537
vt 0.279541 0.539795
vt 0.278564 0.550537
vt 0.274414 0.500977
vt 0.289307 0.522705
vt 0.213257 0.064941
vt 0.259766 0.471680
vt 0.265625 0.482422
vt 0.228027 0.035156
vt 0.222046 0.045898
vt 0.298584 0.511719
vt 0.200562 0.114258
vt 0.190308 0.114258
vt 0.192017 0.125488
vt 0.189697 0.103516
vt 0.208862 0.114746
s 0
f 1/1/1 44/2/1 4/3/2
f 73/4/3 4/3/3 44/2/1
f 4/3/3 73/4/3 3/5/4
f 42/6/5 3/5/6 73/4/3
f 2/7/7 3/5/8 64/8/9
f 2/7/10 4/3/11 3/5/12
f 5/9/13 4/3/11 2/7/7
f 5/9/13 1/1/14 4/3/11
f 6/10/15 2/11/16 11/12/17
f 64/13/17 11/12/17 2/11/18
f 7/14/19 5/15/20 6/10/15
f 2/11/16 6/10/15 5/15/20
f 44/16/21 72/17/22 73/18/23
f 103/19/24 8/20/24 9/21/25
f 10/22/26 43/23/26 9/21/27
f 9/24/28 11/12/29 10/25/30
f 9/24/28 6/10/31 11/12/29
f 8/26/32 6/10/31 9/24/28
f 8/26/32 7/14/33 6/10/31
f 17/27/34 15/28/35 18/29/36
f 17/27/34 14/30/37 15/28/35
f 47/31/38 14/30/37 17/27/39
f 47/31/38 13/32/38 14/30/37
f 13/32/40 12/33/40 14/30/41
f 16/34/42 14/30/41 12/33/40
f 14/30/41 16/34/42 15/28/43
f 82/35/44 15/28/43 16/34/42
f 20/36/45 17/37/46 19/38/5
f 18/39/47 19/38/5 17/37/46
f 48/40/40 47/41/40 20/36/45
f 17/37/46 20/36/45 47/41/40
f 101/42/48 19/38/33 104/43/49
f 101/42/48 20/36/50 19/38/33
f 21/44/38 20/36/50 101/42/48
f 21/44/38 48/40/38 20/36/50
f 27/45/51 25/46/52 26/47/53
f 22/48/54 26/47/53 25/46/52
f 25/46/52 27/45/51 23/49/55
f 49/50/56 23/49/55 27/45/51
f 24/51/57 25/46/58 23/49/59
f 50/52/60 24/51/57 23/49/59
f 25/46/58 45/53/61 22/48/61
f 24/51/62 45/53/61 25/46/58
f 26/54/63 46/55/63 28/56/64
f 27/57/65 26/54/63 28/56/64
f 27/57/66 28/56/64 51/58/67
f 49/59/68 27/57/65 51/58/67
f 71/60/69 28/56/70 67/61/71
f 46/55/72 67/61/54 28/56/70
f 28/56/70 71/60/69 51/58/73
f 52/62/74 51/58/73 71/60/75
f 33/63/76 35/64/77 31/65/78
f 29/66/79 31/65/80 35/64/77
f 31/65/78 29/66/79 30/67/81
f 59/68/82 30/67/81 29/66/79
f 32/69/83 30/67/84 54/70/85
f 32/69/83 31/65/86 30/67/84
f 34/71/87 31/65/86 32/69/83
f 34/71/87 33/63/88 31/65/89
f 29/72/90 35/73/86 40/74/91
f 35/73/86 41/75/92 40/74/91
f 59/76/93 29/72/94 60/77/95
f 29/72/90 40/74/91 60/77/95
f 36/78/96 54/79/97 90/80/98
f 37/81/99 34/82/100 32/83/101
f 38/84/102 62/85/103 96/86/104
f 68/87/105 97/88/106 39/89/107
f 41/75/108 68/90/109 40/74/77
f 39/91/110 40/74/77 68/90/109
f 40/74/77 39/91/111 60/77/78
f 62/92/112 60/77/78 39/91/111
f 5/9/13 18/29/36 1/1/14
f 15/28/35 1/1/14 18/29/36
f 1/1/113 82/35/44 44/2/113
f 82/35/44 1/1/113 15/28/43
f 44/16/114 85/93/115 72/17/22
f 7/14/19 18/39/47 5/15/20
f 18/39/47 7/14/19 19/38/5
f 103/19/24 102/94/116 8/20/24
f 8/26/32 104/43/117 7/14/33
f 19/38/33 7/14/33 104/43/117
f 13/32/38 47/31/38 22/48/54
f 26/47/53 22/48/54 47/31/38
f 13/32/40 45/53/61 12/33/40
f 45/53/61 13/32/40 22/48/61
f 26/54/63 47/41/40 46/55/63
f 48/40/40 46/55/63 47/41/40
f 21/44/38 67/61/54 48/40/38
f 46/55/72 48/40/38 67/61/54
f 49/50/118 33/63/76 23/49/55
f 35/64/77 33/63/76 49/50/118
f 34/71/87 50/52/60 33/63/88
f 23/49/59 33/63/88 50/52/60
f 37/81/119 86/95/120 34/82/100
f 35/73/89 49/59/68 41/75/92
f 51/58/67 41/75/92 49/59/68
f 52/96/121 89/97/121 68/87/105
f 52/62/74 41/75/108 51/58/73
f 68/90/122 41/75/108 52/62/74
f 59/68/82 55/98/123 30/67/81
f 53/99/123 55/98/123 59/68/82
f 56/100/124 54/70/85 55/98/124
f 30/67/84 55/98/124 54/70/85
f 92/101/125 90/80/98 56/102/125
f 54/79/126 56/102/125 90/80/98
f 57/103/127 58/104/128 92/101/127
f 58/105/129 57/106/130 95/107/130
f 53/108/131 59/76/93 61/109/131
f 60/77/95 61/109/132 59/76/93
f 62/85/103 38/84/102 63/110/133
f 38/84/102 95/107/134 63/110/135
f 62/92/112 61/109/136 60/77/80
f 63/111/137 61/109/137 62/92/112
f 89/97/121 52/96/121 65/112/138
f 70/113/139 88/114/139 65/112/140
f 88/114/139 70/113/139 99/115/141
f 70/113/139 67/116/142 66/117/141
f 67/116/142 70/113/139 71/118/143
f 50/119/120 34/82/100 86/95/120
f 87/120/144 50/119/145 86/95/145
f 88/121/146 87/120/144 69/122/147
f 69/122/147 87/120/148 86/95/145
f 89/97/121 97/88/149 68/87/105
f 65/112/140 69/123/150 89/97/121
f 69/123/150 65/112/140 88/114/139
f 65/112/151 71/118/143 70/113/139
f 71/118/152 65/112/140 52/96/153
f 74/124/154 73/18/155 72/17/22
f 73/18/23 74/124/156 42/125/157
f 76/126/158 42/125/159 74/124/156
f 72/17/22 77/127/160 74/124/156
f 72/17/22 78/128/115 77/127/160
f 75/129/161 74/124/154 77/127/160
f 74/124/156 75/129/162 76/126/158
f 79/130/163 76/126/158 75/129/164
f 77/131/165 103/19/24 80/132/166
f 77/131/167 78/133/168 103/19/24
f 75/134/169 77/131/165 80/132/170
f 75/134/171 80/132/166 43/23/26
f 79/135/26 75/134/172 43/23/26
f 80/132/166 103/19/24 9/21/173
f 80/132/166 9/21/25 43/23/174
f 12/136/175 83/137/175 16/138/176
f 12/136/175 45/139/177 83/137/175
f 85/93/115 82/140/115 81/141/178
f 85/93/115 44/16/21 82/140/115
f 83/137/175 99/142/175 81/141/179
f 99/142/175 83/137/175 88/121/146
f 78/128/115 85/93/115 84/143/180
f 78/128/115 72/17/22 85/93/115
f 69/122/147 86/95/120 94/144/181
f 86/95/120 37/81/99 94/144/181
f 88/121/146 98/145/146 87/120/144
f 88/121/146 83/137/175 98/145/146
f 94/146/182 89/97/153 69/123/150
f 97/88/106 89/97/153 94/146/183
f 36/78/184 32/83/185 54/79/126
f 37/81/99 32/83/185 36/78/184
f 91/147/186 90/80/98 58/104/128
f 90/80/98 92/101/125 58/104/128
f 91/147/187 36/78/184 90/80/98
f 93/148/188 36/78/96 91/147/189
f 93/148/188 37/81/119 36/78/184
f 93/148/188 94/144/181 37/81/99
f 96/86/104 91/149/190 38/84/102
f 91/149/191 96/86/104 93/150/192
f 58/105/193 38/84/102 91/149/194
f 95/107/130 38/84/102 58/105/129
f 97/88/106 93/150/192 96/86/104
f 97/88/106 94/146/183 93/150/192
f 39/89/195 96/86/196 62/85/197
f 96/86/196 39/89/107 97/88/149
f 98/145/146 83/137/175 45/139/177
f 98/145/146 45/139/177 24/151/198
f 87/120/144 24/151/198 50/119/120
f 98/145/146 24/151/199 87/120/200
f 66/117/141 99/115/141 70/113/139
f 99/115/141 66/117/141 100/152/201
f 100/152/201 101/153/202 104/154/168
f 100/152/203 66/117/141 101/153/204
f 66/117/141 21/155/141 101/153/204
f 21/155/141 66/117/141 67/116/142
f 84/156/205 100/152/206 102/94/168
f 84/156/205 99/115/141 100/152/201
f 78/133/168 84/156/205 102/94/168
f 102/94/168 103/19/24 78/133/168
f 104/154/168 8/20/207 102/94/168
f 102/94/208 100/152/201 104/154/168
f 81/141/179 16/138/209 83/137/210
f 16/138/176 81/141/179 82/140/115
f 81/141/179 84/143/180 85/93/211
f 84/143/180 81/141/179 99/142/175
