# Blender 4.0.2
# www.blender.org
mtllib SM_TableBasse_01_Leg_1.mtl
o SM_TableBasse_01.002
v 0.150485 0.330549 -0.177033
v 0.145102 0.307894 -0.194198
v 0.150437 0.330964 -0.203160
v 0.145112 0.307939 -0.167842
v 0.172952 0.308518 -0.167999
v 0.180626 0.331099 -0.143766
v 0.181240 0.330847 -0.176299
v 0.208403 0.330948 -0.143788
v 0.191320 0.353464 -0.142154
v 0.220534 0.352917 -0.142255
v 0.120684 0.175406 -0.160300
v 0.122001 0.199348 -0.140115
v 0.120684 0.175508 -0.138535
v 0.125916 0.222774 -0.144812
v 0.145111 0.199349 -0.117523
v 0.145111 0.199348 -0.140115
v 0.143533 0.175510 -0.116197
v 0.167326 0.199280 -0.117515
v 0.149801 0.222774 -0.121463
v 0.122751 0.113417 -0.163170
v 0.120684 0.137383 -0.160300
v 0.153382 0.090475 -0.148398
v 0.146044 0.113256 -0.141049
v 0.122781 0.113256 -0.141051
v 0.146046 0.113255 -0.118308
v 0.142173 0.054571 -0.190131
v 0.152257 0.033877 -0.204131
v 0.164084 0.013570 -0.190602
v 0.152473 0.033595 -0.176672
v 0.181614 0.033591 -0.148186
v 0.181561 0.033561 -0.176620
v 0.224931 0.014378 -0.159271
v 0.208447 0.033220 -0.174291
v 0.195517 0.013575 -0.159865
v 0.209338 0.033876 -0.147968
v 0.169262 0.054599 -0.137810
v 0.195348 0.054554 -0.137827
v 0.155723 0.352622 -0.215136
v 0.155858 0.353159 -0.186224
v 0.190859 0.352635 -0.185932
v 0.149793 0.222743 -0.144804
v 0.172706 0.307607 -0.140704
v 0.199673 0.308746 -0.174261
v 0.143533 0.175540 -0.138535
v 0.120684 0.137140 -0.138535
v 0.143533 0.137061 -0.138535
v 0.143533 0.137136 -0.116197
v 0.165508 0.137380 -0.116197
v 0.165508 0.175407 -0.116197
v 0.128932 0.090402 -0.148431
v 0.128791 0.090783 -0.171555
v 0.142156 0.054615 -0.164296
v 0.169485 0.054095 -0.164526
v 0.143533 0.090930 -0.171479
v 0.176762 0.090785 -0.124355
v 0.153414 0.090401 -0.124498
v 0.176688 0.090931 -0.138535
v 0.195874 0.053529 -0.174291
v 0.177589 -0.004806 -0.239294
v 0.177589 -0.004806 -0.206803
v 0.163499 0.014366 -0.219735
v 0.244503 -0.004806 -0.239294
v 0.211699 -0.004806 -0.206803
v 0.195146 0.013996 -0.190226
v 0.211699 -0.004806 -0.173458
v 0.224108 0.015185 -0.174291
v 0.244503 -0.004806 -0.173458
v 0.219861 0.351872 -0.174261
v 0.219861 0.351872 -0.214653
v 0.179205 0.351872 -0.214653
v 0.143533 0.113408 -0.163134
v 0.209230 0.033796 -0.204021
v 0.224108 0.015185 -0.218899
v 0.211699 -0.004806 -0.239294
v 0.179236 0.015185 -0.218899
v 0.168372 0.113415 -0.163164
v 0.179236 0.053529 -0.190665
v 0.179205 0.330989 -0.203106
v 0.179205 0.308746 -0.194465
v 0.199673 0.308746 -0.194465
v 0.208314 0.330989 -0.174261
v 0.209049 0.330645 -0.203841
v 0.125879 0.222608 -0.167512
v 0.143533 0.175473 -0.160300
v 0.121994 0.199280 -0.162118
v 0.143533 0.222544 -0.167492
v 0.165508 0.137217 -0.160300
v 0.143533 0.137217 -0.160300
v 0.179236 0.033220 -0.203238
v 0.176688 0.090931 -0.171479
v 0.244503 -0.004806 -0.206803
v 0.195874 0.053529 -0.190665
v 0.172700 0.222544 -0.167492
v 0.167326 0.199280 -0.162118
v 0.172700 0.222544 -0.138535
v 0.165508 0.175473 -0.160300
v 0.167316 0.199282 -0.138535
v 0.172720 0.222607 -0.121425
v 0.199302 0.307560 -0.140693
v 0.165508 0.137217 -0.138535
v 0.168342 0.113408 -0.138535
v 0.168378 0.113417 -0.118278
v 0.165508 0.175473 -0.138535
v 0.143533 0.199282 -0.162108
vn -0.9754 0.2203 -0.0000
vn -0.9737 0.2277 -0.0000
vn -0.9720 0.2352 -0.0000
vn -0.9719 0.2353 -0.0000
vn -0.9697 0.2444 -0.0000
vn -0.9720 0.2351 -0.0000
vn -0.0000 -0.3139 -0.9495
vn -0.0000 -0.4090 -0.9125
vn -0.0000 0.2830 0.9591
vn -0.0079 0.2924 0.9563
vn -0.0158 0.3795 0.9251
vn -0.0158 0.3862 0.9223
vn -0.0158 0.3795 0.9250
vn -0.0157 0.3863 0.9223
vn -0.0000 0.4722 0.8815
vn -0.0000 0.4816 0.8764
vn -0.9591 0.2830 -0.0000
vn -0.9263 0.3768 -0.0079
vn -0.9223 0.3863 -0.0079
vn -0.9612 0.2757 -0.0000
vn -0.9263 0.3768 -0.0078
vn -0.8764 0.4816 -0.0000
vn -0.9224 0.3863 -0.0079
vn 0.8440 -0.5364 -0.0000
vn 0.9052 -0.4251 -0.0000
vn 0.9495 -0.3139 -0.0000
vn 0.9052 -0.4250 -0.0000
vn -0.0000 0.2052 0.9787
vn -0.0000 0.1961 0.9806
vn -0.0000 0.0551 0.9985
vn -0.0000 -0.0000 1.0000
vn -0.0000 0.0550 0.9985
vn -0.0000 -0.1491 0.9888
vn -0.0000 -0.1733 0.9849
vn -0.9997 0.0236 -0.0000
vn -0.9947 0.1026 -0.0000
vn -0.9930 0.1182 -0.0000
vn -0.9787 0.2052 -0.0000
vn -0.9771 0.2128 -0.0000
vn -0.0000 0.1337 0.9910
vn -0.0000 0.1260 0.9920
vn -0.0000 0.0236 0.9997
vn -0.0000 0.2444 0.9697
vn -0.0000 0.2518 0.9678
vn -0.9920 0.1260 -0.0000
vn -0.9910 0.1337 -0.0000
vn -0.9678 0.2518 -0.0000
vn -0.0000 0.1182 0.9930
vn -0.0000 0.1105 0.9939
vn -0.0000 0.1104 0.9939
vn -0.0000 0.2128 0.9771
vn -0.9463 -0.3233 -0.0000
vn -0.9518 -0.3068 -0.0000
vn -0.9821 -0.1886 -0.0000
vn -0.9862 -0.1657 -0.0000
vn -0.9821 -0.1885 -0.0000
vn -0.9995 -0.0315 -0.0000
vn -0.0000 -0.2203 0.9754
vn -0.0000 -0.3632 0.9317
vn -0.0000 -0.3768 0.9263
vn -0.0000 -0.1961 0.9806
vn -0.0000 -0.0393 0.9992
vn -0.0000 -0.0394 0.9992
vn -0.9263 -0.3768 -0.0000
vn -0.9317 -0.3632 -0.0000
vn -0.9754 -0.2203 -0.0000
vn -0.9806 -0.1961 -0.0000
vn -0.9992 -0.0393 -0.0000
vn 0.9082 0.4185 -0.0000
vn 0.9715 0.2370 -0.0000
vn -0.0000 -0.1885 0.9821
vn -0.0000 -0.3068 0.9518
vn -0.0000 -0.3233 0.9463
vn -0.0000 -0.1657 0.9862
vn -0.0000 -0.0315 0.9995
vn 0.0079 0.4876 -0.8730
vn -0.0000 0.4876 -0.8730
vn 0.0236 0.5743 -0.8183
vn -0.0000 0.6789 -0.7342
vn 0.0158 0.6788 -0.7341
vn -0.0000 0.5924 -0.8056
vn -0.8865 -0.4628 -0.0000
vn -0.8764 -0.4816 -0.0000
vn -0.8440 -0.5364 -0.0000
vn -0.8247 -0.5655 -0.0000
vn -0.9154 -0.4025 -0.0000
vn -0.9290 -0.3700 -0.0000
vn -0.8864 -0.4628 -0.0000
vn -0.0000 -0.5510 0.8345
vn -0.0000 -0.6063 0.7953
vn -0.0000 -0.6371 0.7708
vn -0.0000 -0.5511 0.8345
vn -0.0000 -0.5364 0.8440
vn -0.0000 -0.4628 0.8864
vn -0.0000 -0.4345 0.9007
vn -0.7708 -0.6371 -0.0000
vn -0.7953 -0.6063 -0.0000
vn -0.8345 -0.5511 -0.0000
vn -0.8462 -0.5328 -0.0000
vn -0.7952 -0.6063 -0.0000
vn -0.9007 -0.4345 -0.0000
vn 0.8183 0.5743 -0.0236
vn 0.8731 0.4876 -0.0000
vn 0.8730 0.4876 -0.0079
vn 0.7342 0.6789 -0.0000
vn 0.8056 0.5924 -0.0000
vn 0.7341 0.6788 -0.0158
vn -0.0000 -0.4876 0.8730
vn -0.0000 -0.5692 0.8222
vn -0.0000 -0.4877 0.8730
vn -0.0000 -0.4661 0.8848
vn -0.0000 -0.4025 0.9154
vn -0.0000 -0.3700 0.9290
vn -0.9754 0.2205 -0.0000
vn -0.9753 0.2207 -0.0000
vn -0.9754 0.2206 -0.0000
vn -0.9612 0.2758 -0.0000
vn 0.9591 -0.2830 -0.0000
vn -0.0000 0.4186 -0.9082
vn 0.9082 0.4186 -0.0000
vn 0.8730 0.4876 -0.0000
vn -0.8058 -0.5922 -0.0000
vn -0.0000 -0.6622 0.7494
vn -0.0000 -0.6063 0.7952
vn -0.0000 -0.6624 0.7491
vn -0.0000 0.7149 -0.6992
vn 0.0158 0.6789 -0.7341
vn 0.6993 0.7148 -0.0000
vn 0.7188 0.6952 -0.0000
vn -0.7492 -0.6624 -0.0000
vn -0.7492 -0.6623 -0.0000
vn -0.0000 -0.5975 0.8019
vn 0.6991 0.7151 -0.0000
vn 0.6991 0.7150 -0.0000
vn -0.0079 -0.4250 -0.9052
vn -0.0000 -0.5364 -0.8440
vn -0.0157 -0.4409 -0.8974
vn -0.0000 -0.5328 -0.8462
vn -0.0000 0.2369 -0.9715
vn -0.0000 0.2127 -0.9771
vn -0.0000 0.0472 -0.9989
vn -0.0000 0.2128 -0.9771
vn -0.0000 0.2370 -0.9715
vn -0.0158 0.6149 -0.7884
vn -0.0079 0.4970 -0.8677
vn -0.0158 0.6150 -0.7884
vn -0.0000 0.6952 -0.7189
vn -0.0000 0.7150 -0.6991
vn -0.0000 0.6952 -0.7188
vn -0.0000 0.4185 -0.9082
vn 0.0014 0.2370 -0.9715
vn -0.0000 0.2591 -0.9658
vn -0.0000 0.4251 -0.9052
vn -0.0000 0.4876 -0.8731
vn -0.0157 -0.4408 -0.8974
vn -0.0079 -0.3233 -0.9463
vn -0.0157 -0.4408 -0.8975
vn -0.0079 -0.4250 -0.9051
vn -0.0078 -0.3233 -0.9463
vn -0.0000 -0.2830 -0.9591
vn 0.9051 -0.4250 0.0079
vn 0.8974 -0.4408 0.0157
vn 0.9463 -0.3233 0.0079
vn 0.8974 -0.4409 0.0157
vn -0.0000 -0.1491 -0.9888
vn -0.0000 -0.1414 -0.9900
vn -0.0000 -0.0315 -0.9995
vn -0.0000 -0.1414 -0.9899
vn 0.0005 -0.1491 -0.9888
vn -0.0000 0.0393 -0.9992
vn -0.0000 -0.1657 -0.9862
vn -0.0004 -0.1491 -0.9888
vn -0.0000 0.5924 -0.8057
vn 0.0236 0.5744 -0.8183
vn 0.8730 0.4877 -0.0000
vn 0.8057 0.5924 -0.0000
vn 0.7341 0.6789 -0.0158
vn 0.7884 0.6150 0.0158
vn 0.7189 0.6952 -0.0000
vn 0.8677 0.4970 0.0079
vn 0.9052 0.4251 -0.0000
vn 0.9862 -0.1657 -0.0000
vn 0.9888 -0.1491 -0.0000
vn 0.9995 -0.0315 -0.0000
vn 0.9591 -0.2830 0.0004
vn 0.9989 0.0472 -0.0000
vn 0.9899 -0.1414 -0.0000
vn 0.9995 -0.0315 -0.0005
vn 0.9888 -0.1491 -0.0003
vn 0.9771 0.2127 -0.0000
vn 0.9715 0.2369 -0.0000
vn 0.9771 0.2128 -0.0000
vn 0.9658 0.2591 -0.0000
vn 0.9715 0.2370 0.0012
vn 0.9052 0.4250 -0.0000
vn 0.9992 0.0394 -0.0000
vn 0.9992 0.0393 -0.0000
vn 0.9900 -0.1414 -0.0000
vn 0.0003 -0.2830 -0.9591
vt 0.969238 0.454590
vt 0.979492 0.446777
vt 0.968262 0.443359
vt 0.980469 0.457520
vt 0.978027 0.435547
vt 0.965820 0.431641
vt 0.756348 0.246582
vt 0.741211 0.246094
vt 0.743164 0.257324
vt 0.992676 0.453613
vt 0.992676 0.441895
vt 0.993164 0.430176
vt 0.633789 0.089355
vt 0.645996 0.080566
vt 0.631836 0.078125
vt 0.645508 0.091797
vt 0.648438 0.068848
vt 0.628906 0.067871
vt 0.071289 0.187988
vt 0.070618 0.176758
vt 0.056885 0.187500
vt 0.072021 0.165527
vt 0.056885 0.166016
vt 0.657227 0.088379
vt 0.658203 0.077148
vt 0.660645 0.065918
vt 0.973633 0.518555
vt 0.982910 0.508057
vt 0.973145 0.507324
vt 0.983398 0.518555
vt 0.982422 0.498047
vt 0.972656 0.496094
vt 0.993164 0.506592
vt 0.993652 0.517822
vt 0.993164 0.495117
vt 0.636719 0.154297
vt 0.646973 0.143555
vt 0.636719 0.142578
vt 0.646973 0.154297
vt 0.646484 0.133301
vt 0.636230 0.131348
vt 0.656738 0.142090
vt 0.657227 0.153320
vt 0.656738 0.130371
vt 0.974609 0.559326
vt 0.984375 0.555908
vt 0.974609 0.547607
vt 0.984375 0.545410
vt 0.974121 0.536133
vt 0.983887 0.535400
vt 0.994141 0.547119
vt 0.994629 0.559082
vt 0.994141 0.535645
vt 0.639160 0.195801
vt 0.649414 0.191895
vt 0.638672 0.184082
vt 0.648438 0.181641
vt 0.637695 0.172363
vt 0.647949 0.171387
vt 0.072937 0.064941
vt 0.072937 0.075684
vt 0.079346 0.064941
vt 0.658203 0.182617
vt 0.659668 0.194824
vt 0.657715 0.171387
vt 0.740723 0.126953
vt 0.757324 0.126465
vt 0.745117 0.115723
vt 0.757324 0.104980
vt 0.750488 0.104492
vt 0.757324 0.115723
vt 0.984375 0.585693
vt 0.973633 0.591553
vt 0.983887 0.597412
vt 0.973145 0.604248
vt 0.973633 0.579102
vt 0.984375 0.574219
vt 0.996094 0.591309
vt 0.996582 0.603760
vt 0.995605 0.578857
vt 0.641113 0.241211
vt 0.652832 0.233887
vt 0.640625 0.228516
vt 0.651855 0.222168
vt 0.639648 0.215820
vt 0.650879 0.210449
vt 0.068665 0.035156
vt 0.056854 0.045898
vt 0.073242 0.046387
vt 0.056854 0.024414
vt 0.056854 0.035156
vt 0.063599 0.023926
vt 0.663086 0.227051
vt 0.664551 0.239746
vt 0.661621 0.214844
vt 0.072937 0.125488
vt 0.741211 0.145508
vt 0.734375 0.145020
vt 0.983887 0.609863
vt 0.971680 0.618164
vt 0.997559 0.617432
vt 0.756836 0.092285
vt 0.027603 0.011719
vt 0.036774 0.024414
vt 0.042236 0.011719
vt 0.653809 0.246582
vt 0.641113 0.255371
vt 0.666992 0.253906
vt 0.057251 0.011719
vt 0.756348 0.257324
vt 0.745605 0.268555
vt 0.769531 0.257324
vt 0.756348 0.268066
vt 0.774414 0.268066
vt 0.740723 0.156250
vt 0.731445 0.156250
vt 0.740723 0.166992
vt 0.770996 0.115723
vt 0.764648 0.126465
vt 0.777344 0.104980
vt 0.771973 0.092285
vt 0.786621 0.092285
vt 0.751953 0.156250
vt 0.750977 0.166992
vt 0.755859 0.145508
vt 0.765625 0.246582
vt 0.753906 0.206055
vt 0.056915 0.176758
vt 0.043579 0.176758
vt 0.047791 0.166016
vt 0.059937 0.125488
vt 0.038696 0.187500
vt 0.740723 0.194824
vt 0.730957 0.194824
vt 0.732422 0.205566
vt 0.740723 0.184082
vt 0.730469 0.184082
vt 0.730469 0.166992
vt 0.751465 0.194824
vt 0.740723 0.205566
vt 0.750488 0.184082
vt 0.043457 0.035156
vt 0.049469 0.045898
vt 0.058136 0.064941
vt 0.062347 0.114746
vt 0.072937 0.114746
vt 0.063171 0.104004
vt 0.072937 0.104004
vt 0.063171 0.086426
vt 0.082397 0.114746
vt 0.080688 0.125488
vt 0.072937 0.086426
vt 0.082092 0.075684
vt 0.061859 0.075684
vt 0.083008 0.086426
vt 0.083008 0.104004
s 0
f 2/1/1 1/2/2 3/3/3
f 1/2/2 2/1/1 4/4/1
f 3/3/4 39/5/5 38/6/5
f 39/5/5 3/3/6 1/2/2
f 79/7/7 2/8/7 3/9/8
f 4/4/9 5/10/10 1/2/11
f 7/11/12 1/2/13 5/10/10
f 1/2/11 7/11/14 39/5/15
f 40/12/16 39/5/15 7/11/12
f 5/13/17 6/14/18 7/15/19
f 42/16/20 6/14/21 5/13/17
f 7/15/19 9/17/22 40/18/22
f 6/14/18 9/17/22 7/15/23
f 10/19/24 8/20/25 68/21/24
f 99/22/26 43/23/26 8/20/27
f 42/16/28 99/24/29 6/14/30
f 8/25/31 6/14/32 99/24/29
f 6/14/30 8/25/31 9/17/33
f 10/26/34 9/17/33 8/25/31
f 11/27/35 12/28/36 85/29/37
f 13/30/35 12/28/36 11/27/35
f 85/29/37 14/31/38 83/32/39
f 12/28/36 14/31/38 85/29/37
f 16/33/40 12/28/41 44/34/42
f 13/30/42 44/34/42 12/28/41
f 12/28/41 16/33/40 14/31/43
f 41/35/44 14/31/43 16/33/40
f 44/36/35 15/37/45 16/38/46
f 17/39/35 15/37/45 44/36/35
f 16/38/46 19/40/5 41/41/47
f 15/37/45 19/40/5 16/38/46
f 18/42/48 15/37/49 49/43/42
f 17/39/42 49/43/42 15/37/49
f 15/37/50 18/42/48 19/40/28
f 98/44/51 19/40/28 18/42/48
f 51/45/52 50/46/53 20/47/54
f 24/48/55 20/47/56 50/46/53
f 20/47/54 24/48/55 21/49/57
f 45/50/57 21/49/57 24/48/55
f 23/51/58 50/46/59 22/52/60
f 23/51/58 24/48/61 50/46/59
f 46/53/62 24/48/61 23/51/58
f 46/53/63 45/50/63 24/48/61
f 22/54/64 56/55/65 23/56/66
f 25/57/67 23/56/66 56/55/65
f 23/56/66 25/57/67 46/58/68
f 47/59/68 46/58/68 25/57/67
f 57/60/69 101/61/70 55/62/69
f 102/63/71 56/55/72 55/64/73
f 102/63/71 25/57/74 56/55/72
f 48/65/75 25/57/74 102/63/71
f 48/65/75 47/59/75 25/57/74
f 26/66/76 77/67/77 27/68/78
f 75/69/79 61/70/80 89/71/81
f 29/72/82 27/73/83 28/74/84
f 61/75/85 28/74/84 27/73/83
f 27/73/83 29/72/82 26/76/86
f 52/77/87 26/76/86 29/72/88
f 31/78/89 28/74/90 64/79/91
f 31/78/92 29/72/93 28/74/90
f 53/80/94 29/72/93 31/78/92
f 53/80/94 52/77/95 29/72/93
f 64/81/96 34/82/97 31/83/98
f 30/84/99 31/83/98 34/82/100
f 31/83/98 30/84/99 53/85/82
f 36/86/101 53/85/88 30/84/99
f 35/87/102 58/88/103 37/89/104
f 66/90/105 33/91/106 32/92/107
f 35/93/108 34/82/93 32/94/109
f 35/93/110 30/84/111 34/82/93
f 37/95/112 30/84/111 35/93/108
f 37/95/112 36/86/113 30/84/111
f 14/31/38 4/4/114 83/32/39
f 2/1/115 83/32/39 4/4/116
f 41/35/44 4/4/9 14/31/43
f 41/35/44 5/10/10 4/4/9
f 5/13/17 41/41/47 42/16/117
f 19/40/5 42/16/117 41/41/47
f 42/16/28 98/44/51 99/24/29
f 98/44/51 42/16/28 19/40/28
f 43/23/26 99/22/26 95/96/118
f 11/27/35 21/49/57 13/30/35
f 45/50/57 13/30/35 21/49/57
f 46/53/62 44/34/42 45/50/62
f 13/30/42 45/50/62 44/34/42
f 47/59/68 44/36/35 46/58/68
f 47/59/68 17/39/35 44/36/35
f 48/65/75 17/39/42 47/59/75
f 49/43/42 17/39/42 48/65/75
f 51/45/52 52/77/87 50/46/53
f 52/77/87 51/45/52 26/76/86
f 53/80/94 22/52/60 52/77/95
f 50/46/59 52/77/95 22/52/60
f 54/97/119 26/66/76 51/98/119
f 22/54/64 36/86/101 56/55/65
f 36/86/101 22/54/64 53/85/88
f 37/95/112 55/64/73 36/86/113
f 56/55/72 36/86/113 55/64/73
f 55/62/120 37/89/104 57/60/120
f 58/88/121 57/60/120 37/89/104
f 60/99/122 61/75/85 59/100/122
f 60/99/122 28/74/84 61/75/85
f 63/101/123 64/79/91 60/99/123
f 28/74/124 60/99/125 64/79/91
f 59/102/126 61/70/127 75/69/79
f 62/103/128 73/104/129 91/105/128
f 65/106/130 64/81/96 63/107/130
f 65/106/131 34/82/100 64/81/96
f 67/108/132 32/94/109 65/106/132
f 34/82/93 65/106/132 32/94/109
f 32/92/107 67/109/133 66/90/105
f 91/105/134 66/90/105 67/109/134
f 78/110/135 3/9/8 38/111/136
f 79/7/7 3/9/8 78/110/135
f 82/112/137 70/113/138 69/114/136
f 71/115/139 20/116/140 88/117/141
f 20/116/142 71/115/143 51/98/119
f 72/118/144 89/71/81 92/119/145
f 89/71/81 72/118/146 75/69/79
f 73/120/147 75/69/79 72/118/146
f 74/121/148 75/69/79 73/120/149
f 59/102/148 75/69/79 74/121/148
f 73/120/149 62/122/126 74/121/126
f 54/97/150 51/98/150 71/115/151
f 71/115/143 76/123/152 54/97/150
f 76/123/152 71/115/143 87/124/141
f 90/125/153 54/97/119 76/123/152
f 90/125/153 77/67/77 54/97/119
f 77/67/154 26/66/76 54/97/119
f 78/110/135 38/111/136 70/113/138
f 82/112/155 78/110/135 70/113/138
f 80/126/156 78/110/135 82/112/157
f 80/126/156 79/7/7 78/110/158
f 80/126/159 93/127/160 79/7/7
f 68/21/24 8/20/25 81/128/161
f 81/128/161 8/20/27 43/23/26
f 82/129/162 81/128/161 80/130/163
f 81/128/161 82/129/162 68/21/24
f 43/23/26 80/130/163 81/128/161
f 80/130/163 43/23/26 93/131/118
f 69/132/24 68/21/24 82/129/164
f 104/133/165 85/134/166 83/135/160
f 84/136/167 85/134/168 104/133/169
f 84/136/167 11/137/167 85/134/166
f 11/137/167 84/136/167 21/138/170
f 94/139/171 86/140/160 93/127/160
f 86/140/160 79/7/7 93/127/160
f 94/139/171 104/133/172 86/140/160
f 96/141/167 104/133/165 94/139/171
f 96/141/167 84/136/167 104/133/165
f 96/141/167 87/124/141 84/136/167
f 21/138/170 88/117/141 20/116/142
f 88/117/141 21/138/170 84/136/167
f 88/117/141 87/124/141 71/115/143
f 88/117/141 84/136/167 87/124/141
f 89/71/173 27/68/174 77/67/77
f 27/68/174 89/71/173 61/70/127
f 77/67/154 92/119/145 89/71/173
f 92/119/145 77/67/77 90/125/153
f 58/88/175 35/87/102 33/91/176
f 32/92/177 33/91/176 35/87/102
f 72/142/178 66/90/105 73/104/179
f 66/90/105 91/105/128 73/104/129
f 33/91/176 66/90/105 72/142/178
f 33/91/176 72/142/178 92/143/180
f 58/88/103 33/91/176 92/143/180
f 92/143/180 90/144/181 58/88/121
f 93/131/118 43/23/26 95/96/118
f 93/131/118 95/96/118 94/145/182
f 94/145/182 97/146/183 96/147/184
f 97/146/183 94/145/182 95/96/185
f 103/148/184 96/147/184 97/146/183
f 96/147/184 103/148/184 87/149/186
f 97/146/183 18/150/187 103/148/188
f 18/150/187 97/146/183 98/151/118
f 95/96/118 98/151/118 97/146/189
f 95/96/118 99/22/26 98/151/118
f 100/152/186 87/149/186 103/148/184
f 100/152/186 101/61/70 87/149/186
f 100/152/186 102/153/190 101/61/191
f 102/153/192 55/62/120 101/61/70
f 101/61/70 76/154/193 87/149/186
f 101/61/194 57/60/69 76/154/193
f 57/60/120 90/144/195 76/154/193
f 57/60/120 58/88/121 90/144/181
f 48/155/196 102/153/190 100/152/186
f 100/152/186 103/148/184 48/155/197
f 49/156/184 48/155/197 103/148/184
f 49/156/184 103/148/184 18/150/198
f 104/133/165 83/135/160 86/140/199
f 83/135/160 2/8/7 86/140/160
f 79/7/7 86/140/160 2/8/7
